<svg width="29" height="21" viewBox="0 0 29 21" fill="none" xmlns="http://www.w3.org/2000/svg">
<g clip-path="url(#clip0_0_632)">
<path d="M25.2915 0.556252H2.81009C1.47727 0.556252 0.401367 1.62825 0.401367 2.95625V17.3563C0.401367 18.6843 1.47727 19.7563 2.81009 19.7563H25.2915C26.6244 19.7563 27.7003 18.6843 27.7003 17.3563V2.95625C27.7003 1.62825 26.6244 0.556252 25.2915 0.556252Z" fill="url(#paint0_radial_0_632)"/>
<path d="M25.6931 0.95625C26.5763 0.95625 27.2989 1.67625 27.2989 2.55625V17.7563C27.2989 18.6362 26.5763 19.3563 25.6931 19.3563H2.40873C1.52553 19.3563 0.802909 18.6362 0.802909 17.7563V2.55625C0.802909 1.67625 1.52553 0.95625 2.40873 0.95625H25.6931ZM25.6931 0.15625H2.40873C1.0759 0.15625 0 1.22825 0 2.55625V17.7563C0 19.0842 1.0759 20.1562 2.40873 20.1562H25.6931C27.0259 20.1562 28.1018 19.0842 28.1018 17.7563V2.55625C28.1018 1.22825 27.0259 0.15625 25.6931 0.15625Z" fill="#E7E7E7"/>
<path d="M5.57227 10.4363H6.95327L6.26277 8.75625L5.57227 10.4363Z" fill="white"/>
<path d="M16.3875 8.91625V9.68425H18.6195V10.5483H16.3875V11.3963H18.8845L20.0407 10.1403L18.9407 8.91625H16.3875Z" fill="white"/>
<path d="M25.2275 7.19625H21.5662L20.7312 8.10025L19.9524 7.19625H15.2553H14.6772H12.389L11.7225 8.71625L11.0401 7.19625H7.91675V7.90025L7.5715 7.19625H4.92993L2.36865 13.1003H5.42774L5.82116 12.1563H6.6883L7.0737 13.1003H10.478V12.3883L10.7831 13.1163H12.5495L12.8546 12.3883V13.1163H14.6371H19.8319L20.691 12.1963L21.51 13.1163H25.107L22.4574 10.1803L25.2275 7.19625ZM14.6532 12.2603H13.6174V8.94025L12.1481 12.2603H11.2408L9.77147 8.94025V12.2603H7.708L7.3226 11.3163H5.20292L4.8095 12.2603H3.70148L5.51606 8.02825H7.02553L8.75178 12.0363V8.02825H10.4058L11.7386 10.9003L12.959 8.02825H14.6532V12.2603ZM23.2684 12.2763H21.9516L20.6991 10.8763L19.4064 12.2763H15.3838V8.03625H19.4706L20.7232 9.42825L22.0158 8.03625H23.3487L21.3735 10.1563L23.2684 12.2763Z" fill="white"/>
</g>
<defs>
<radialGradient id="paint0_radial_0_632" cx="0" cy="0" r="1" gradientUnits="userSpaceOnUse" gradientTransform="translate(319.078 50.6754) scale(2618.71 2618.71)">
<stop stop-color="#9DD5F6"/>
<stop offset="0.0711" stop-color="#98D3F5"/>
<stop offset="0.1575" stop-color="#89CEF3"/>
<stop offset="0.2516" stop-color="#70C6EF"/>
<stop offset="0.3514" stop-color="#4EBBEA"/>
<stop offset="0.4546" stop-color="#23ADE3"/>
<stop offset="0.5" stop-color="#0DA6E0"/>
<stop offset="1" stop-color="#2E77BC"/>
</radialGradient>
<clipPath id="clip0_0_632">
<rect width="29" height="20" fill="white" transform="translate(0 0.15625)"/>
</clipPath>
</defs>
</svg>
