<svg width="29" height="21" viewBox="0 0 29 21" fill="none" xmlns="http://www.w3.org/2000/svg">
<g clip-path="url(#clip0_0_648)">
<path d="M1.13989 1.15937H27.7799V19.5594H1.13989V1.15937Z" fill="white"/>
<path d="M6.28344 14.0391C6.28344 13.7141 6.1144 13.7355 5.95232 13.7319V13.638C6.0928 13.645 6.2368 13.645 6.37752 13.645C6.5288 13.645 6.73432 13.638 7.00096 13.638C7.93392 13.638 8.442 14.2631 8.442 14.9031C8.442 15.261 8.2332 16.1607 6.9576 16.1607C6.77392 16.1607 6.6044 16.1536 6.4352 16.1536C6.27304 16.1536 6.1144 16.1572 5.95232 16.1607V16.0669C6.16832 16.0451 6.27312 16.0379 6.28336 15.792V14.0392L6.28344 14.0391ZM6.63664 15.7343C6.63664 16.0127 6.83504 16.0451 7.01144 16.0451C7.79 16.0451 8.0456 15.4559 8.0456 14.9174C8.0456 14.2418 7.61312 13.7539 6.91784 13.7539C6.76984 13.7539 6.70184 13.7645 6.63664 13.7683V15.7343ZM8.56848 16.0669H8.63672C8.73752 16.0669 8.80968 16.0669 8.80968 15.9474V14.9681C8.80968 14.8092 8.75568 14.7871 8.62232 14.7153V14.6574C8.7916 14.6063 8.9936 14.5382 9.00776 14.5273C9.0332 14.5128 9.05464 14.509 9.07272 14.509C9.09056 14.509 9.09808 14.5308 9.09808 14.5599V15.9474C9.09808 16.0669 9.17728 16.0669 9.27816 16.0669H9.33936V16.1609C9.21672 16.1609 9.09056 16.1537 8.96112 16.1537C8.83144 16.1537 8.7016 16.1572 8.56848 16.1609V16.0669ZM8.95392 13.9525C8.86008 13.9525 8.77744 13.8659 8.77744 13.7719C8.77744 13.6814 8.86392 13.598 8.95392 13.598C9.04728 13.598 9.13056 13.6743 9.13056 13.7719C9.13056 13.8695 9.05096 13.9525 8.95392 13.9525ZM9.68168 14.9896C9.68168 14.856 9.64184 14.82 9.47288 14.7513V14.6827C9.62768 14.6322 9.77528 14.5851 9.94832 14.5091C9.95904 14.5091 9.9696 14.5164 9.9696 14.5451V14.7802C10.1754 14.6322 10.352 14.509 10.5937 14.509C10.8996 14.509 11.0077 14.7331 11.0077 15.015V15.9474C11.0077 16.0669 11.0869 16.0669 11.1879 16.0669H11.2528V16.1609C11.1264 16.1609 11.0003 16.1537 10.8709 16.1537C10.741 16.1537 10.6112 16.1572 10.4817 16.1609V16.0669H10.5463C10.6475 16.0669 10.7191 16.0669 10.7191 15.9474V15.0115C10.7191 14.8053 10.5937 14.7043 10.3879 14.7043C10.2728 14.7043 10.089 14.7982 9.9696 14.8779V15.9473C9.9696 16.0669 10.0493 16.0669 10.1503 16.0669H10.215V16.1609C10.089 16.1609 9.96272 16.1537 9.83296 16.1537C9.70336 16.1537 9.57344 16.1572 9.44384 16.1609V16.0669H9.50888C9.60968 16.0669 9.68168 16.0669 9.68168 15.9473V14.9896ZM11.5268 15.1633C11.5193 15.1959 11.5193 15.25 11.5268 15.3731C11.548 15.7163 11.7684 15.9981 12.0562 15.9981C12.2546 15.9981 12.4098 15.8897 12.543 15.756L12.5932 15.8068C12.4274 16.0271 12.222 16.215 11.9268 16.215C11.3537 16.215 11.2384 15.6583 11.2384 15.4272C11.2384 14.7187 11.7139 14.509 11.966 14.509C12.258 14.509 12.5718 14.6932 12.5751 15.0763C12.5751 15.0983 12.5751 15.1197 12.5718 15.1416L12.5391 15.1633H11.5268ZM12.1647 15.0476C12.2546 15.0476 12.2652 15.0006 12.2652 14.9573C12.2652 14.773 12.1535 14.6247 11.9516 14.6247C11.7321 14.6247 11.5807 14.7871 11.5375 15.0476H12.1647ZM12.6581 16.0669H12.7554C12.856 16.0669 12.9281 16.0669 12.9281 15.9474V14.9319C12.9281 14.8199 12.795 14.7982 12.7408 14.7693V14.7153C13.0038 14.6031 13.1481 14.509 13.1808 14.509C13.2022 14.509 13.2128 14.5199 13.2128 14.5562V14.8814H13.2204C13.3103 14.7406 13.4619 14.509 13.6814 14.509C13.7716 14.509 13.8868 14.5703 13.8868 14.7006C13.8868 14.7982 13.8185 14.8852 13.7177 14.8852C13.6055 14.8852 13.6055 14.7982 13.4796 14.7982C13.4182 14.7982 13.2166 14.8814 13.2166 15.0983V15.9474C13.2166 16.0669 13.2886 16.0669 13.3896 16.0669H13.5912V16.1609C13.393 16.1572 13.2422 16.1537 13.087 16.1537C12.9393 16.1537 12.7878 16.1572 12.6582 16.1609L12.6581 16.0669ZM14.0454 15.6583C14.0924 15.8969 14.2363 16.0994 14.4995 16.0994C14.7117 16.0994 14.791 15.9693 14.791 15.8428C14.791 15.4163 14.0058 15.5536 14.0058 14.9718C14.0058 14.7693 14.1681 14.509 14.5642 14.509C14.6794 14.509 14.8342 14.5418 14.9747 14.6141L15.0002 14.9824H14.9172C14.8812 14.755 14.7553 14.6248 14.5244 14.6248C14.3803 14.6248 14.2435 14.708 14.2435 14.8632C14.2435 15.2864 15.0794 15.156 15.0794 15.7234C15.0794 15.9618 14.8884 16.2151 14.4595 16.2151C14.3154 16.2151 14.1462 16.1644 14.0202 16.0923L13.9804 15.6766L14.0454 15.6583ZM18.333 14.2922H18.2432C18.1746 13.8695 17.8756 13.6995 17.4722 13.6995C17.0575 13.6995 16.4558 13.9776 16.4558 14.845C16.4558 15.5755 16.975 16.0994 17.5297 16.0994C17.8863 16.0994 18.182 15.8537 18.2541 15.4741L18.3367 15.4956L18.2541 16.0233C18.1027 16.1175 17.6955 16.215 17.4574 16.215C16.6146 16.215 16.0814 15.6692 16.0814 14.856C16.0814 14.1151 16.7406 13.5836 17.4469 13.5836C17.7386 13.5836 18.0197 13.6779 18.2971 13.7756L18.333 14.2922ZM18.463 16.0669H18.5313C18.6323 16.0669 18.7046 16.0669 18.7046 15.9474V13.9346C18.7046 13.6995 18.6506 13.6923 18.5134 13.6526V13.5947C18.6576 13.5479 18.809 13.4827 18.8846 13.4392C18.9238 13.4176 18.953 13.3994 18.9637 13.3994C18.9857 13.3994 18.9929 13.4212 18.9929 13.4503V15.9474C18.9929 16.0669 19.072 16.0669 19.173 16.0669H19.2338V16.1609C19.1118 16.1609 18.9857 16.1537 18.8558 16.1537C18.7262 16.1537 18.5966 16.1572 18.463 16.1609V16.0669ZM20.7766 15.9618C20.7766 16.0271 20.8161 16.0307 20.8772 16.0307C20.9206 16.0307 20.9745 16.0271 21.0214 16.0271V16.1031C20.8664 16.1175 20.5709 16.1935 20.5024 16.215L20.4843 16.2041V15.9116C20.2683 16.0886 20.1024 16.215 19.8464 16.215C19.6518 16.215 19.4501 16.0886 19.4501 15.7852V14.8596C19.4501 14.7658 19.4357 14.6753 19.2343 14.6574V14.5886C19.3642 14.5851 19.6518 14.5634 19.6989 14.5634C19.7389 14.5634 19.7389 14.5887 19.7389 14.6682V15.6003C19.7389 15.709 19.7389 16.0197 20.0521 16.0197C20.1745 16.0197 20.3366 15.9258 20.4878 15.7997V14.8269C20.4878 14.7549 20.315 14.7153 20.1856 14.679V14.6139C20.5094 14.5922 20.7116 14.5634 20.7474 14.5634C20.7766 14.5634 20.7766 14.5886 20.7766 14.6286V15.9618ZM21.4936 14.7693C21.6376 14.6464 21.832 14.509 22.0304 14.509C22.4486 14.509 22.7005 14.8744 22.7005 15.268C22.7005 15.7415 22.3547 16.215 21.8391 16.215C21.5726 16.215 21.4322 16.1282 21.3383 16.0886L21.2305 16.1715L21.155 16.1319C21.187 15.9187 21.2054 15.709 21.2054 15.4887V13.9346C21.2054 13.6995 21.151 13.6923 21.0142 13.6526V13.5947C21.1587 13.5479 21.3096 13.4827 21.3854 13.4392C21.425 13.4176 21.4537 13.3994 21.4649 13.3994C21.4863 13.3994 21.4935 13.4212 21.4935 13.4503L21.4936 14.7693ZM21.4936 15.7523C21.4936 15.8897 21.6231 16.1212 21.8646 16.1212C22.2502 16.1212 22.4122 15.7415 22.4122 15.4197C22.4122 15.0295 22.117 14.7043 21.8359 14.7043C21.7022 14.7043 21.5908 14.7911 21.4935 14.8744L21.4936 15.7523ZM5.94824 18.2622H5.97584C6.04624 18.2622 6.12072 18.2526 6.12072 18.1502V17.1199C6.12072 17.0174 6.04624 17.0077 5.97584 17.0077H5.94824V16.9487C6.0248 16.9487 6.1424 16.9565 6.2388 16.9565C6.33664 16.9565 6.45416 16.9487 6.54632 16.9487V17.0077H6.51872C6.4484 17.0077 6.37376 17.0174 6.37376 17.1199V18.1502C6.37376 18.2526 6.4484 18.2622 6.51872 18.2622H6.54632V18.3215C6.45224 18.3215 6.33432 18.3137 6.23656 18.3137C6.14048 18.3137 6.0248 18.3215 5.94824 18.3215V18.2622Z" fill="#211E1F"/>
<path d="M6.54642 18.3298C6.4517 18.3298 6.33426 18.3219 6.23658 18.3219C6.14074 18.3219 6.02546 18.3298 5.94834 18.3298H5.93994V18.2537H5.97586C6.0469 18.2521 6.11162 18.2463 6.11234 18.1502V17.1199C6.11162 17.0238 6.0469 17.0174 5.97586 17.016H5.93994V16.9399H5.94834C6.02546 16.9399 6.1429 16.9477 6.23874 16.9477C6.33634 16.9477 6.4537 16.9399 6.54642 16.9399H6.55522V17.016H6.51898C6.44786 17.0174 6.38274 17.0238 6.38234 17.1199V18.1502C6.38274 18.2463 6.44786 18.252 6.51898 18.2537H6.55514V18.3297H6.54642V18.3298ZM6.53802 18.313V18.271H6.51898C6.44898 18.271 6.36562 18.2588 6.36522 18.1502V17.1199C6.36562 17.0112 6.44898 16.999 6.51898 16.999H6.53802V16.9572C6.44746 16.9572 6.33394 16.9649 6.23882 16.9649C6.14562 16.9649 6.0329 16.9578 5.95706 16.9572V16.999H5.97578C6.0457 16.999 6.12938 17.0112 6.12938 17.1199V18.1502C6.12938 18.2589 6.0457 18.271 5.97578 18.271H5.95706V18.313C6.0329 18.3122 6.1437 18.3051 6.23658 18.3051C6.33202 18.3051 6.44554 18.3124 6.53802 18.313ZM7.89338 17.9338L7.89738 17.9299V17.1926C7.89738 17.0311 7.78538 17.0078 7.72674 17.0078H7.68346V16.9486C7.77578 16.9486 7.86586 16.9564 7.95794 16.9564C8.03826 16.9564 8.11906 16.9487 8.1993 16.9487V17.0077H8.16994C8.08738 17.0077 7.99522 17.0234 7.99522 17.2573V18.1523C7.99522 18.2211 7.99722 18.2898 8.0069 18.3507H7.93226L6.92274 17.2219V18.0323C6.92274 18.2034 6.95578 18.2621 7.10698 18.2621H7.14018V18.3215C7.05602 18.3215 6.97186 18.3137 6.88738 18.3137C6.79938 18.3137 6.70914 18.3215 6.62082 18.3215V18.2621H6.64826C6.78354 18.2621 6.82458 18.1699 6.82458 18.0127V17.1844C6.82458 17.0744 6.73418 17.0077 6.64634 17.0077H6.62074V16.9487C6.6953 16.9487 6.7717 16.9564 6.8461 16.9564C6.90498 16.9564 6.96194 16.9487 7.02066 16.9487L7.89338 17.9338Z" fill="#211E1F"/>
<path d="M8.00686 18.3594L7.92606 18.3563L6.93102 17.2442V18.0323C6.93342 18.2033 6.95934 18.2518 7.10702 18.2537H7.14902V18.3298H7.14022C7.05542 18.3298 6.97102 18.3219 6.88742 18.3219C6.79958 18.3219 6.70958 18.3299 6.62062 18.3299H6.61206V18.2537H6.64822C6.77782 18.2531 6.81478 18.1696 6.81622 18.0128V17.1846C6.81598 17.0799 6.73038 17.0163 6.6463 17.0161H6.61206V16.9403H6.62062C6.69558 16.9403 6.77238 16.9478 6.8459 16.9478C6.9043 16.9478 6.9611 16.9403 7.02718 16.9431L7.88878 17.9159V17.1927C7.88774 17.0363 7.78374 17.0175 7.72662 17.0161H7.6747V16.9403H7.68342C7.77606 16.9403 7.8663 16.9478 7.9579 16.9478C8.03774 16.9478 8.11806 16.9403 8.1991 16.9403H8.20766V17.016H8.1699C8.08902 17.0184 8.0059 17.0255 8.00366 17.2574V18.1523C8.00366 18.221 8.00566 18.2897 8.01518 18.3493L8.0171 18.3594H8.00686ZM7.93246 18.342H7.99726C7.98846 18.283 7.98686 18.2175 7.98686 18.1523V17.2574C7.98686 17.0214 8.0855 16.999 8.1699 16.999H8.19062V16.9573C8.11334 16.9579 8.0359 16.9649 7.95798 16.9649C7.86822 16.9649 7.78094 16.9579 7.69214 16.9573L7.69206 16.999H7.7267C7.78694 16.999 7.9059 17.026 7.9059 17.1927L7.90318 17.9359L7.89918 17.9399L7.89262 17.9461L7.02062 16.9573C6.96246 16.9573 6.90566 16.9649 6.84598 16.9649C6.77398 16.9649 6.70046 16.9579 6.62942 16.9573L6.62894 16.999H6.64638C6.73838 16.999 6.83294 17.0695 6.83294 17.1846V18.0127C6.83294 18.1699 6.78926 18.2706 6.6483 18.2711L6.62942 18.2706V18.313C6.71438 18.3122 6.80166 18.3051 6.88742 18.3051C6.96926 18.3051 7.0507 18.3123 7.13174 18.3131V18.2711H7.10694C6.9527 18.2706 6.91438 18.2032 6.91414 18.0323V17.1999L7.93246 18.342ZM7.88886 17.9299V17.9292L7.88726 17.9279L7.88886 17.9299ZM8.49286 17.0469C8.34558 17.0469 8.34006 17.0823 8.31062 17.2258H8.25174C8.2595 17.1708 8.26934 17.1159 8.27526 17.0586C8.28318 17.0035 8.28694 16.9487 8.28694 16.8917H8.33414C8.3499 16.9507 8.39894 16.9487 8.45206 16.9487H9.46342C9.51646 16.9487 9.56542 16.9468 9.5695 16.8876L9.61622 16.8955C9.60862 16.9487 9.6007 17.0018 9.59478 17.0549C9.59126 17.1079 9.59126 17.1611 9.59126 17.2141L9.53222 17.236C9.52814 17.1633 9.51838 17.0469 9.38718 17.0469H9.06558V18.0932C9.06558 18.2448 9.1343 18.2622 9.22806 18.2622H9.2655V18.3215C9.18902 18.3215 9.05158 18.3137 8.94598 18.3137C8.82838 18.3137 8.69094 18.3215 8.61438 18.3215V18.2622H8.65174C8.75982 18.2622 8.81446 18.2525 8.81446 18.0973V17.0469H8.49286Z" fill="#211E1F"/>
<path d="M9.26587 18.3298C9.18867 18.3298 9.05147 18.3219 8.94611 18.3219C8.82867 18.3219 8.69147 18.3298 8.61451 18.3298H8.60635V18.2537H8.65195C8.75995 18.2511 8.80347 18.2497 8.80595 18.0973V17.0554H8.49291V17.038H8.82283V18.0972C8.82283 18.255 8.75955 18.2709 8.65187 18.2711H8.62307V18.3125C8.70035 18.3121 8.83227 18.305 8.94603 18.305C9.04827 18.305 9.17939 18.3121 9.25683 18.3125V18.2711H9.22819C9.13339 18.2709 9.05715 18.2476 9.05715 18.0931V17.038H9.38723C9.51883 17.0386 9.53603 17.1508 9.54035 17.2238L9.58259 17.2081C9.58259 17.1568 9.58291 17.1054 9.58643 17.0536C9.59211 17.003 9.59931 16.9528 9.60667 16.9027L9.57675 16.8976C9.56763 16.9549 9.51259 16.9577 9.46315 16.9572H8.44203C8.39595 16.9572 8.34555 16.955 8.32795 16.9001H8.29563C8.29539 16.9535 8.29163 17.0067 8.28403 17.0595C8.27835 17.1136 8.26939 17.1655 8.26203 17.2175H8.30403C8.32987 17.0804 8.34667 17.036 8.49291 17.038V17.0554C8.34803 17.0579 8.35107 17.0825 8.31915 17.2279L8.31763 17.2345H8.24219L8.24331 17.2243C8.25115 17.1692 8.26107 17.1144 8.26691 17.0571C8.27507 17.0026 8.27891 16.948 8.27891 16.8915V16.883H8.34107L8.34243 16.8891C8.35587 16.9387 8.39219 16.9391 8.44203 16.9399H9.46339C9.51803 16.9391 9.55779 16.9383 9.56115 16.8868L9.56195 16.8775L9.57075 16.8795L9.62611 16.8883L9.62491 16.8967C9.61671 16.9495 9.60959 17.0024 9.60355 17.0554C9.59955 17.1077 9.59955 17.1609 9.59955 17.2139V17.2201L9.59419 17.2223L9.52467 17.2476L9.52419 17.2361C9.51899 17.1623 9.51123 17.0553 9.38739 17.0553H9.07443V18.0931C9.07619 18.2415 9.13491 18.2517 9.22827 18.2535H9.27427V18.3296H9.26595L9.26587 18.3298ZM9.67907 18.2621H9.70667C9.77707 18.2621 9.85171 18.2526 9.85171 18.1502V17.1199C9.85171 17.0174 9.77715 17.0077 9.70667 17.0077H9.67907V16.9487C9.79843 16.9487 10.0027 16.9564 10.1671 16.9564C10.3321 16.9564 10.5356 16.9487 10.6688 16.9487C10.6658 17.0489 10.6672 17.1493 10.6732 17.2495L10.614 17.2653C10.6047 17.1375 10.5812 17.0354 10.3751 17.0354H10.1028V17.5504H10.3359C10.4535 17.5504 10.4791 17.4837 10.4907 17.3772H10.5495C10.5416 17.5286 10.5416 17.6802 10.5495 17.8316L10.4907 17.8434C10.4792 17.7255 10.4732 17.6488 10.3378 17.6488H10.1029V18.1068C10.1029 18.2348 10.2161 18.2348 10.3418 18.2348C10.5771 18.2348 10.6808 18.2189 10.7397 17.9951L10.7947 18.0085C10.7685 18.1119 10.7464 18.2163 10.7282 18.3215C10.6026 18.3215 10.377 18.3137 10.2007 18.3137C10.0239 18.3137 9.79091 18.3215 9.67915 18.3215L9.67907 18.2621Z" fill="#211E1F"/>
<path d="M10.7279 18.3298C10.6019 18.3298 10.3766 18.3218 10.2005 18.3218C10.0239 18.3218 9.79089 18.3298 9.67889 18.3298H9.67065V18.2538H9.70641C9.77753 18.2527 9.84193 18.2463 9.84289 18.1503V17.1199C9.84193 17.0239 9.77753 17.0175 9.70641 17.016H9.67065V16.9403H9.67889C9.79857 16.9403 10.0025 16.9478 10.1669 16.9478C10.3318 16.9478 10.5352 16.9403 10.6687 16.9403H10.6775L10.6771 16.9491C10.6757 16.9829 10.6751 17.0167 10.6752 17.0506C10.6752 17.1186 10.6771 17.1929 10.6811 17.249L10.6814 17.256L10.6748 17.2579L10.6059 17.2759L10.6055 17.2659C10.5939 17.1383 10.577 17.0457 10.3751 17.0438H10.1109L10.1107 17.5415H10.3358C10.4486 17.5405 10.4689 17.4825 10.4822 17.3766L10.483 17.3688H10.5581L10.5579 17.3776C10.554 17.4542 10.5519 17.5309 10.5517 17.6075C10.5517 17.6819 10.5541 17.7566 10.5579 17.8315L10.5581 17.8384L10.551 17.84L10.483 17.8536L10.4822 17.8444C10.4687 17.7244 10.4678 17.6587 10.3375 17.6572L10.1109 17.6571V18.1069C10.1111 18.2263 10.2138 18.2256 10.3416 18.2263C10.5776 18.225 10.6723 18.2135 10.7315 17.9926L10.7334 17.9847L10.7416 17.9863L10.8044 18.0024L10.8025 18.0106C10.7772 18.1147 10.7537 18.2187 10.7361 18.3228L10.7345 18.3298H10.7279ZM10.7207 18.3127C10.7384 18.2127 10.7596 18.1134 10.7842 18.015L10.7454 18.0051C10.6867 18.2252 10.573 18.2448 10.3416 18.2434C10.2182 18.2434 10.0944 18.2434 10.0939 18.1068V17.6403H10.3375C10.4744 17.6387 10.4884 17.7217 10.4981 17.8336L10.5405 17.8248C10.533 17.6786 10.533 17.5321 10.5405 17.3859L10.4981 17.3859C10.4872 17.4883 10.4553 17.5603 10.3357 17.5589H10.0939V17.0266H10.3751C10.5791 17.0251 10.6128 17.1307 10.6215 17.2544L10.6639 17.243C10.6601 17.1789 10.6582 17.1147 10.6581 17.0506C10.6581 17.0169 10.6589 16.9851 10.66 16.9573C10.5268 16.9579 10.3283 16.9649 10.1669 16.9649C10.0058 16.9649 9.80745 16.9579 9.68737 16.9573V16.999H9.70641C9.77625 16.999 9.85977 17.0113 9.86001 17.1199V18.1503C9.85977 18.2586 9.77625 18.2706 9.70641 18.2711H9.68737V18.3126C9.80177 18.3125 10.0282 18.3051 10.2005 18.3051C10.3734 18.3051 10.5942 18.3125 10.7207 18.3126V18.3127ZM11.0591 17.1571C11.0591 17.0136 10.9808 17.0077 10.9198 17.0077H10.8846V16.9485C10.9474 16.9485 11.0687 16.9565 11.1884 16.9565C11.306 16.9565 11.4003 16.9485 11.504 16.9485C11.7508 16.9485 11.9707 17.0155 11.9707 17.2951C11.9707 17.4716 11.8531 17.5799 11.6983 17.6411L12.0335 18.1443C12.0883 18.2275 12.1274 18.2507 12.2236 18.2622V18.3215C12.1588 18.3215 12.0961 18.3137 12.0315 18.3137C11.9707 18.3137 11.9078 18.3215 11.8472 18.3215C11.6963 18.1228 11.5667 17.9103 11.4392 17.684H11.3103V18.1051C11.3103 18.2567 11.3805 18.2622 11.4707 18.2622H11.506V18.3215C11.394 18.3215 11.2807 18.3137 11.1688 18.3137C11.0746 18.3137 10.9824 18.3215 10.8846 18.3215V18.2622H10.9198C10.9926 18.2622 11.0591 18.2291 11.0591 18.1562V17.157L11.0591 17.1571ZM11.3103 17.6133H11.4059C11.6021 17.6133 11.7078 17.5386 11.7078 17.3065C11.7078 17.1317 11.5961 17.0195 11.4214 17.0195C11.3626 17.0195 11.3375 17.0256 11.3102 17.0274V17.6133H11.3103Z" fill="#211E1F"/>
<path d="M12.2237 18.3298C12.158 18.3298 12.0956 18.3219 12.0311 18.3219C11.9713 18.3219 11.9087 18.3299 11.8404 18.3265C11.69 18.1287 11.5612 17.9175 11.4344 17.6927H11.3185V18.1048C11.3206 18.2528 11.3799 18.2515 11.4705 18.2537H11.5145V18.3299H11.5057C11.3937 18.3299 11.28 18.3219 11.1686 18.3219C11.0749 18.3219 10.983 18.3299 10.8846 18.3299H10.876V18.2537H10.9197C10.9905 18.2533 11.0501 18.2225 11.0503 18.1563V17.1571C11.0488 17.0175 10.9807 17.0183 10.9197 17.0163H10.876V16.94H10.8845C10.9481 16.94 11.069 16.9478 11.1885 16.9478C11.3055 16.9478 11.3997 16.94 11.5041 16.94C11.7512 16.9406 11.9788 17.009 11.9794 17.2945C11.9794 17.4722 11.8624 17.5831 11.711 17.6449L12.0405 18.1396C12.0953 18.2212 12.1294 18.2415 12.2249 18.2537L12.2321 18.2548V18.3299L12.2237 18.3298ZM11.3101 17.6756H11.4441L11.4464 17.6799C11.5741 17.9059 11.7029 18.118 11.8473 18.3131C11.9071 18.3131 11.9701 18.305 12.0311 18.305C12.0937 18.305 12.1541 18.3118 12.2152 18.3127V18.2697C12.1232 18.2582 12.0801 18.2307 12.0265 18.149L11.6853 17.637L11.6949 17.633C11.8484 17.5725 11.9619 17.4674 11.9621 17.2945C11.9619 17.0217 11.7506 16.9584 11.5041 16.9573C11.4007 16.9573 11.3065 16.9651 11.1885 16.9651C11.0733 16.9651 10.957 16.9579 10.8929 16.9573V16.999H10.9197C10.9807 16.9991 11.0674 17.0092 11.0674 17.1571V18.1563C11.0674 18.2351 10.9936 18.2711 10.9197 18.2713H10.8929V18.3127C10.9873 18.3125 11.0765 18.305 11.1686 18.305C11.2782 18.305 11.3889 18.3125 11.4973 18.3127V18.2713H11.4705C11.3811 18.2711 11.3014 18.26 11.3014 18.1048V17.6756H11.31H11.3101ZM11.3101 17.6216H11.3014V17.0195L11.3089 17.0188C11.3357 17.0167 11.3622 17.0111 11.4215 17.0111C11.6001 17.0111 11.7162 17.1276 11.7165 17.3069C11.716 17.5417 11.6037 17.6215 11.406 17.6215H11.31L11.3101 17.6216ZM11.406 17.6047C11.6001 17.6031 11.6977 17.5355 11.6998 17.3069C11.6987 17.1351 11.5922 17.0285 11.4214 17.0278C11.3685 17.0278 11.3436 17.0327 11.3185 17.0349V17.6047H11.406ZM13.5548 17.9339L13.5584 17.93V17.1927C13.5584 17.0312 13.4468 17.0078 13.388 17.0078H13.345V16.9487C13.437 16.9487 13.5271 16.9565 13.6194 16.9565C13.6999 16.9565 13.78 16.9487 13.8609 16.9487V17.0078H13.8313C13.7489 17.0078 13.6568 17.0234 13.6568 17.2574V18.1524C13.6568 18.2211 13.6587 18.2899 13.6684 18.3508H13.594L12.5844 17.222V18.0323C12.5844 18.2035 12.6177 18.2622 12.7685 18.2622H12.8019V18.3215C12.7177 18.3215 12.6333 18.3137 12.5491 18.3137C12.4606 18.3137 12.3705 18.3215 12.2824 18.3215V18.2622H12.3096C12.445 18.2622 12.4862 18.17 12.4862 18.0128V17.1845C12.4862 17.0744 12.3961 17.0077 12.308 17.0077H12.2824V16.9487C12.3566 16.9487 12.4334 16.9565 12.5078 16.9565C12.5662 16.9565 12.6233 16.9487 12.6822 16.9487L13.5548 17.9339Z" fill="#211E1F"/>
<path d="M13.6684 18.3593L13.5876 18.3566L12.5926 17.2443V18.0323C12.5949 18.2033 12.6207 18.2519 12.7686 18.2538H12.8102V18.3298H12.8015C12.7167 18.3298 12.6327 18.3218 12.5486 18.3218C12.461 18.3218 12.3705 18.3298 12.2822 18.3298H12.2734V18.2538H12.3094C12.4389 18.2532 12.476 18.1696 12.4773 18.0123V17.1845C12.4771 17.0797 12.3916 17.0163 12.3078 17.0161H12.2734V16.9401H12.2822C12.357 16.9401 12.4338 16.9478 12.5077 16.9478C12.5653 16.9478 12.6222 16.94 12.688 16.9427L13.5498 17.916V17.1925C13.5493 17.0363 13.4449 17.0169 13.3879 17.0161H13.3361V16.9401H13.3447C13.4374 16.9401 13.5277 16.9478 13.6193 16.9478C13.6993 16.9478 13.7796 16.94 13.8604 16.94H13.8689V17.0161H13.8313C13.7504 17.0183 13.667 17.0255 13.665 17.2575V18.1523C13.665 18.2211 13.6667 18.2892 13.6766 18.3497L13.6778 18.3593H13.6684ZM13.5939 18.3421H13.6583C13.6498 18.2831 13.6478 18.2176 13.6478 18.1523V17.2575C13.648 17.0215 13.7472 16.9996 13.8313 16.9989H13.8518V16.9573C13.7748 16.9579 13.6972 16.965 13.6193 16.965C13.5293 16.965 13.4418 16.9579 13.353 16.9573V16.9989H13.3879C13.4482 16.9996 13.5671 17.0261 13.5671 17.1925L13.5644 17.9359L13.5606 17.9399L13.5546 17.9463L12.682 16.9574C12.6238 16.9574 12.567 16.965 12.5077 16.965C12.4351 16.965 12.3618 16.9579 12.2905 16.9574V16.999H12.3078C12.3998 16.9996 12.4944 17.0693 12.4944 17.1845V18.0123C12.4944 18.1702 12.4501 18.2707 12.3095 18.2712L12.2905 18.2711V18.3127C12.3751 18.3123 12.4626 18.3051 12.5486 18.3051C12.6309 18.3051 12.7123 18.3123 12.7934 18.3127V18.2712H12.7686C12.6142 18.2711 12.5756 18.2033 12.5753 18.0322V17.2002L13.5939 18.3421ZM13.5498 17.93V17.9294L13.5482 17.9279L13.5498 17.93ZM14.1761 18.0402C14.1562 18.1069 14.1326 18.1584 14.1326 18.1935C14.1326 18.2527 14.2151 18.2623 14.2796 18.2623H14.3014V18.3215C14.2223 18.3167 14.1431 18.3142 14.0638 18.3137C13.9933 18.3137 13.923 18.3173 13.8524 18.3215V18.2622H13.8642C13.9406 18.2622 14.0055 18.2171 14.0344 18.1343L14.3485 17.2319C14.3738 17.1591 14.4094 17.0607 14.4213 16.9879C14.4837 16.9665 14.5622 16.9271 14.5994 16.9035C14.6054 16.9015 14.6089 16.8994 14.615 16.8994C14.6209 16.8994 14.6246 16.8994 14.629 16.9055C14.6347 16.9211 14.6404 16.9389 14.6467 16.9546L15.0074 17.9832C15.0309 18.0519 15.0542 18.1247 15.0796 18.1838C15.1032 18.2389 15.1446 18.2622 15.2094 18.2622H15.221V18.3215C15.1309 18.3168 15.0407 18.3142 14.9506 18.3138C14.8544 18.3138 14.7562 18.3173 14.6562 18.3215V18.2622H14.6779C14.7228 18.2622 14.7995 18.2546 14.7995 18.2054C14.7995 18.1798 14.7818 18.1268 14.7599 18.0637L14.6837 17.8355H14.2386L14.1761 18.0403V18.0402ZM14.4622 17.169H14.4582L14.2758 17.7255H14.6422L14.4622 17.169Z" fill="#211E1F"/>
<path d="M15.2203 18.3298C15.1321 18.3258 15.0438 18.3218 14.9505 18.3218C14.8543 18.3218 14.7567 18.3258 14.6563 18.3298L14.6475 18.3303V18.2535H14.6777C14.7231 18.2535 14.7905 18.2431 14.7905 18.2053C14.7911 18.1829 14.7734 18.129 14.7518 18.0663L14.6772 17.8439H14.2447L14.1838 18.0427C14.1639 18.1097 14.1404 18.1617 14.1405 18.1937C14.1412 18.2417 14.2145 18.2535 14.2795 18.2535H14.3097V18.3303L14.3009 18.3298C14.2224 18.3258 14.1423 18.3218 14.0641 18.3218C13.9938 18.3218 13.9232 18.3258 13.8529 18.3298L13.8438 18.3303V18.2535H13.864C13.937 18.2531 13.9979 18.2116 14.0262 18.1315L14.3402 17.2291C14.3658 17.1561 14.4012 17.0581 14.4181 16.9797C14.4801 16.9575 14.5398 16.9293 14.5961 16.8953C14.6016 16.8935 14.607 16.8907 14.615 16.8907C14.6193 16.8906 14.6236 16.8915 14.6274 16.8936C14.6312 16.8956 14.6344 16.8986 14.6366 16.9023C14.6422 16.9184 14.6484 16.9359 14.6543 16.9519L15.0154 17.9803C15.0386 18.0494 15.062 18.122 15.0875 18.1801C15.1102 18.2326 15.1463 18.2532 15.2093 18.2535H15.2293V18.3303L15.2203 18.3298ZM14.6646 18.3122C14.7618 18.3088 14.8568 18.305 14.9505 18.305C15.0415 18.305 15.1268 18.3088 15.2121 18.3122V18.2711H15.2093C15.1422 18.2715 15.0957 18.2451 15.0717 18.1871C15.0461 18.1275 15.0222 18.0545 14.9993 17.9856L14.6382 16.9573C14.6323 16.9416 14.6265 16.9237 14.6214 16.9099C14.6198 16.9079 14.6201 16.9079 14.6185 16.9079H14.615C14.6109 16.9079 14.6086 16.9091 14.6036 16.9105C14.5658 16.9352 14.4871 16.9738 14.429 16.9892C14.4169 17.0636 14.3817 17.1618 14.3561 17.2347L14.0424 18.1372C14.0125 18.2226 13.9437 18.2713 13.864 18.2711H13.8609V18.3122C13.9281 18.3088 13.9961 18.305 14.0641 18.305C14.1398 18.305 14.2173 18.3088 14.2921 18.3122V18.2711H14.2795C14.2157 18.2703 14.1265 18.2631 14.1241 18.1937C14.1242 18.1545 14.1483 18.1041 14.1674 18.0377L14.176 18.0403L14.1674 18.0375L14.232 17.8272H14.6891L14.7678 18.0609C14.7898 18.1241 14.8077 18.1764 14.8077 18.2053C14.8049 18.2657 14.7221 18.2699 14.6777 18.2711H14.6646V18.3122ZM14.2638 17.7339L14.4516 17.1603H14.4622H14.4681L14.6541 17.7339H14.2638ZM14.2873 17.7169H14.6305L14.4599 17.1899L14.2873 17.7169ZM15.3071 17.0469C15.1599 17.0469 15.1542 17.0823 15.1246 17.2258H15.0657C15.0734 17.1708 15.0833 17.1159 15.0895 17.0586C15.0974 17.0035 15.1009 16.9487 15.1009 16.8917H15.1482C15.1639 16.9507 15.2131 16.9487 15.2657 16.9487H16.2778C16.3303 16.9487 16.3793 16.9468 16.3833 16.8876L16.4302 16.8955C16.4228 16.9487 16.415 17.0018 16.409 17.0549C16.4048 17.1079 16.4048 17.1611 16.4048 17.2141L16.3461 17.2359C16.3424 17.1633 16.3326 17.0469 16.2012 17.0469H15.8796V18.0932C15.8796 18.2448 15.9484 18.2622 16.0422 18.2622H16.0794V18.3215C16.003 18.3215 15.866 18.3137 15.76 18.3137C15.6425 18.3137 15.505 18.3215 15.4286 18.3215V18.2622H15.4657C15.5737 18.2622 15.6288 18.2525 15.6288 18.0973V17.0469H15.3071Z" fill="#211E1F"/>
<path d="M16.0796 18.3298C16.0026 18.3298 15.8653 18.3218 15.7601 18.3218C15.6429 18.3218 15.5056 18.3298 15.4287 18.3298H15.4201V18.2537H15.4658C15.5739 18.2511 15.6173 18.2497 15.6201 18.0973L15.6197 17.0555H15.3072V17.0381H15.637V18.0973C15.637 18.2551 15.5735 18.2706 15.4658 18.2709H15.437V18.313C15.5146 18.3122 15.6463 18.3051 15.7601 18.3051C15.8625 18.3051 15.9935 18.3122 16.071 18.313V18.271H16.0421C15.9478 18.2706 15.8714 18.2478 15.8712 18.0932V17.0381H16.2013C16.3329 17.0387 16.3501 17.1509 16.3538 17.2238L16.3966 17.2081C16.3966 17.1569 16.3968 17.1055 16.4006 17.0539C16.406 17.0033 16.4133 16.9529 16.4206 16.9027L16.3909 16.8976C16.382 16.9549 16.3266 16.9581 16.2778 16.9572H15.2559C15.2097 16.9578 15.1597 16.9551 15.1418 16.8999H15.1098C15.1095 16.9533 15.1055 17.0067 15.0978 17.0596C15.0926 17.1138 15.0829 17.1659 15.0757 17.2175H15.1177C15.1437 17.0805 15.1606 17.036 15.3072 17.0381V17.0555C15.1618 17.0579 15.1651 17.0826 15.133 17.2279L15.1315 17.2346H15.0559L15.0571 17.2247C15.0653 17.1693 15.0751 17.1144 15.0808 17.0575C15.0888 17.0027 15.0926 16.9481 15.0926 16.8916V16.8831H15.1546L15.1562 16.8892C15.17 16.9388 15.2057 16.9391 15.2559 16.9399L15.2658 16.9402H16.2778C16.3319 16.9391 16.3714 16.9383 16.3749 16.8871L16.3754 16.8776L16.3846 16.8795L16.4402 16.8883L16.4388 16.8968C16.4306 16.9496 16.4234 17.0024 16.4173 17.0555C16.4133 17.1078 16.4133 17.1611 16.4133 17.214V17.2202L16.4078 17.2223L16.3382 17.2477L16.3379 17.2362C16.3329 17.1623 16.3251 17.0554 16.2013 17.0554H15.8881V18.0932C15.8902 18.2415 15.9488 18.2518 16.0421 18.2537H16.088V18.3297H16.0796V18.3298ZM16.5028 18.2621H16.5302C16.601 18.2621 16.6751 18.2526 16.6751 18.1501V17.1199C16.6751 17.0174 16.601 17.0077 16.5303 17.0077H16.5028V16.9487C16.5793 16.9487 16.6968 16.9564 16.7926 16.9564C16.891 16.9564 17.0086 16.9487 17.1009 16.9487V17.0077H17.0733C17.0028 17.0077 16.9281 17.0174 16.9281 17.1199V18.1502C16.9281 18.2526 17.0028 18.2622 17.0733 18.2622H17.1009V18.3214C17.0066 18.3214 16.8889 18.3137 16.7911 18.3137C16.6949 18.3137 16.5793 18.3215 16.5028 18.3215V18.2621Z" fill="#211E1F"/>
<path d="M17.1008 18.3298C17.0061 18.3298 16.8887 18.3218 16.7909 18.3218C16.6951 18.3218 16.5793 18.3298 16.5027 18.3298H16.4941V18.2537H16.5301C16.601 18.2526 16.666 18.2465 16.6663 18.1502V17.1199C16.666 17.0239 16.601 17.0174 16.5301 17.016H16.4941V16.9403H16.5027C16.5793 16.9403 16.697 16.9477 16.7925 16.9477C16.8903 16.9477 17.0079 16.9403 17.1008 16.9403H17.1091V17.016H17.0733C17.0017 17.0174 16.9373 17.0239 16.9364 17.1199V18.1502C16.9373 18.2465 17.0017 18.2526 17.0733 18.2537H17.1091V18.3297H17.1008V18.3298ZM17.092 18.3126V18.271H17.0733C17.003 18.271 16.9198 18.2586 16.9198 18.1502V17.1199C16.9198 17.0112 17.003 16.999 17.0733 16.999H17.092V16.9573C17.0014 16.9578 16.8881 16.9649 16.7925 16.9649C16.6997 16.9649 16.5873 16.9578 16.5113 16.9573V16.999H16.5302C16.5999 16.999 16.6834 17.0112 16.6837 17.1199V18.1502C16.6834 18.2586 16.5999 18.271 16.5302 18.271H16.5113V18.3126C16.5869 18.3118 16.6978 18.3051 16.7909 18.3051C16.886 18.3051 16.9995 18.3122 17.0919 18.3126H17.092ZM17.8826 16.9192C18.3005 16.9192 18.6337 17.1791 18.6337 17.5979C18.6337 18.0503 18.3102 18.3509 17.8929 18.3509C17.4768 18.3509 17.1594 18.0677 17.1594 17.6449C17.1594 17.2359 17.4749 16.9192 17.8826 16.9192ZM17.9122 18.2643C18.2927 18.2643 18.3589 17.9278 18.3589 17.6411C18.3589 17.3536 18.2045 17.0057 17.8789 17.0057C17.5357 17.0057 17.4338 17.3124 17.4338 17.5758C17.4338 17.9278 17.5945 18.2643 17.9122 18.2643Z" fill="#211E1F"/>
<path d="M17.1509 17.6449C17.1517 17.2312 17.4709 16.9112 17.8827 16.9107V16.9275C17.4798 16.9275 17.1678 17.2402 17.1675 17.6449C17.1684 18.063 17.4813 18.3419 17.893 18.342C18.3062 18.3419 18.6251 18.0455 18.6258 17.5975C18.6254 17.184 18.2972 16.9281 17.8827 16.9275V16.9107C18.3039 16.9109 18.6415 17.1734 18.6424 17.5975C18.642 18.0546 18.3143 18.3584 17.893 18.3592C17.4737 18.3584 17.1517 18.0723 17.1509 17.6448V17.6449ZM17.4255 17.5758C17.4261 17.3113 17.5291 16.9968 17.8791 16.9968C18.2119 16.9976 18.3674 17.3522 18.3679 17.6411C18.3673 17.9279 18.3 18.2725 17.9126 18.2725V18.2559C18.2854 18.2554 18.3499 17.9279 18.3509 17.6411C18.3509 17.356 18.1978 17.0147 17.8791 17.0143C17.5427 17.0147 17.4431 17.3139 17.4426 17.5758C17.4428 17.926 17.602 18.2551 17.9126 18.2559V18.2725C17.587 18.2721 17.4261 17.9299 17.4255 17.5757V17.5758ZM19.9551 17.9339L19.9591 17.93V17.1927C19.9591 17.0312 19.8471 17.0078 19.7882 17.0078H19.7458V16.9487C19.8377 16.9487 19.9278 16.9564 20.0197 16.9564C20.1003 16.9564 20.1806 16.9487 20.2612 16.9487V17.0078H20.2316C20.1494 17.0078 20.0571 17.0234 20.0571 17.2574V18.1524C20.0571 18.2211 20.059 18.2899 20.069 18.3508H19.9946L18.9846 17.222V18.0323C18.9846 18.2035 19.0178 18.2622 19.1687 18.2622H19.2023V18.3215C19.1178 18.3215 19.0338 18.3137 18.9494 18.3137C18.8612 18.3137 18.7708 18.3215 18.6826 18.3215V18.2622H18.7102C18.8457 18.2622 18.8863 18.17 18.8863 18.0128V17.1845C18.8863 17.0744 18.7966 17.0077 18.7081 17.0077H18.6825V16.9487C18.757 16.9487 18.8336 16.9565 18.9079 16.9565C18.9668 16.9565 19.0235 16.9487 19.0826 16.9487L19.9551 17.9339Z" fill="#211E1F"/>
<path d="M20.0689 18.3593L19.9878 18.3564L18.993 17.2442V18.0323C18.9951 18.2033 19.021 18.2517 19.1683 18.2535H19.2107V18.3299H19.2022C19.1172 18.3299 19.033 18.3219 18.9493 18.3219C18.8613 18.3219 18.7713 18.3299 18.6822 18.3299H18.6741V18.2535H18.71C18.8393 18.2531 18.8764 18.1696 18.878 18.0128V17.1845C18.8778 17.0798 18.7922 17.0163 18.7079 17.0161H18.6741V16.9403H18.6822C18.7574 16.9403 18.8338 16.9478 18.9078 16.9478C18.966 16.9478 19.0226 16.9403 19.0889 16.9431L19.9503 17.916V17.1928C19.9498 17.0363 19.8454 17.0175 19.7879 17.0161H19.7365V16.9403H19.7453C19.8376 16.9403 19.928 16.9479 20.0193 16.9479C20.0998 16.9479 20.1797 16.9403 20.261 16.9403H20.2694V17.0161H20.2314C20.1507 17.0185 20.0673 17.0258 20.0656 17.2575V18.1523C20.0656 18.2211 20.0671 18.2896 20.0766 18.3498L20.0782 18.3593H20.0689ZM19.9945 18.3421H20.0586C20.05 18.2831 20.0486 18.2176 20.0486 18.1523V17.2575C20.0486 17.021 20.1474 16.9996 20.2314 16.9989H20.2526V16.9573C20.1753 16.9579 20.0978 16.965 20.0194 16.965C19.9302 16.965 19.8424 16.9579 19.7537 16.9573V16.9989H19.7881C19.8489 16.9996 19.9671 17.0265 19.9671 17.1928L19.965 17.9359L19.9613 17.9399L19.955 17.9463L19.0824 16.9574C19.0246 16.9574 18.9674 16.965 18.9078 16.965C18.8357 16.965 18.7621 16.9579 18.6907 16.9574V16.999H18.708C18.8 16.9996 18.8948 17.0693 18.8948 17.1845V18.0128C18.8948 18.17 18.851 18.2707 18.71 18.2712L18.6907 18.2711V18.3127C18.7758 18.3123 18.8631 18.3051 18.9493 18.3051C19.031 18.3051 19.1122 18.3123 19.1937 18.3127V18.2712H19.1683C19.0145 18.2711 18.976 18.2033 18.976 18.0323V17.1999L19.9944 18.3421H19.9945ZM19.9504 17.93V17.9294L19.9488 17.9279L19.9504 17.93ZM20.5761 18.0402C20.5569 18.1069 20.5331 18.1584 20.5331 18.1935C20.5331 18.2527 20.6157 18.2623 20.68 18.2623H20.7018V18.3215C20.6228 18.3168 20.5436 18.3142 20.4645 18.3137C20.3936 18.3137 20.3234 18.3173 20.253 18.3215V18.2622H20.2642C20.341 18.2622 20.406 18.2171 20.435 18.1343L20.749 17.2319C20.7743 17.1591 20.8098 17.0607 20.8213 16.9879C20.8835 16.9657 20.9433 16.9374 21 16.9035C21.0056 16.9015 21.0096 16.8994 21.0155 16.8994C21.0214 16.8994 21.025 16.8994 21.029 16.9055C21.035 16.9211 21.0411 16.9389 21.047 16.9546L21.4075 17.9832C21.431 18.0519 21.4544 18.1247 21.4802 18.1838C21.5038 18.2389 21.545 18.2622 21.6095 18.2622H21.6215V18.3215C21.5313 18.3167 21.441 18.3142 21.3506 18.3138C21.2526 18.3143 21.1545 18.3169 21.0566 18.3215V18.2622H21.0783C21.1231 18.2622 21.2 18.2546 21.2 18.2054C21.2 18.1798 21.1822 18.1268 21.1603 18.0637L21.0842 17.8355H20.639L20.5761 18.0403V18.0402ZM20.8627 17.169H20.8587L20.6762 17.7255H21.0431L20.8627 17.169Z" fill="#211E1F"/>
<path d="M21.6205 18.3298C21.5323 18.3263 21.4442 18.3219 21.3505 18.3219C21.255 18.3219 21.1569 18.3263 21.0568 18.3299L21.0481 18.3303V18.2537H21.0778C21.1234 18.2537 21.1911 18.2431 21.1912 18.2053C21.1916 18.1829 21.174 18.1293 21.1521 18.0663L21.0776 17.8439H20.6448L20.5841 18.0427C20.5646 18.11 20.5412 18.1617 20.5416 18.1935C20.5416 18.2417 20.615 18.2537 20.6799 18.2537H20.7098V18.3303L20.701 18.3298C20.6226 18.3263 20.5424 18.3219 20.4644 18.3219C20.3941 18.3219 20.3236 18.3263 20.2529 18.3299L20.2444 18.3303V18.2537H20.2641C20.3373 18.2535 20.3985 18.2113 20.427 18.1315L20.7408 17.2291C20.7658 17.1561 20.8011 17.0581 20.8185 16.9799C20.8801 16.9585 20.9589 16.9193 20.9969 16.8952C21.0021 16.8935 21.0073 16.8912 21.0153 16.8912C21.0197 16.8908 21.024 16.8916 21.0279 16.8936C21.0317 16.8956 21.0349 16.8988 21.0369 16.9026C21.0427 16.918 21.0485 16.9359 21.0549 16.9519L21.4155 17.9803C21.4389 18.0493 21.4625 18.1219 21.4878 18.1805C21.5109 18.2326 21.5466 18.2531 21.6091 18.2537H21.6295V18.3303L21.6205 18.3298ZM21.0649 18.3125C21.1618 18.3088 21.2573 18.305 21.3505 18.305C21.4417 18.305 21.5273 18.3088 21.6127 18.3122L21.6124 18.2711H21.6092C21.5428 18.2713 21.4965 18.2451 21.4721 18.1871C21.4463 18.1275 21.4229 18.0545 21.3995 17.9859L21.0387 16.9573C21.0328 16.9416 21.0269 16.9237 21.0221 16.9104C21.0205 16.9079 21.0206 16.9079 21.0191 16.9079H21.0154C21.0113 16.9079 21.0091 16.9093 21.0044 16.9107C20.9662 16.9348 20.8876 16.974 20.8296 16.9892C20.8174 17.0636 20.7818 17.1617 20.7565 17.2347L20.4426 18.1373C20.4129 18.2226 20.3443 18.2713 20.2641 18.2711H20.2613V18.3122C20.3287 18.3088 20.3961 18.305 20.4644 18.305C20.5404 18.305 20.6177 18.3088 20.6932 18.3122V18.2711H20.6798C20.6161 18.2703 20.5266 18.2634 20.5243 18.1935C20.5247 18.1544 20.5491 18.1044 20.568 18.0377L20.576 18.0403L20.568 18.0375L20.6325 17.8272H21.0898L21.1684 18.0608C21.19 18.1242 21.2078 18.1764 21.2078 18.2053C21.2049 18.2657 21.1227 18.2699 21.0778 18.2711H21.0649L21.0649 18.3125ZM20.6644 17.7338L20.8524 17.1603H20.8626H20.8687L21.0541 17.7338H20.6644ZM20.6879 17.7169H21.0308L20.8603 17.1902L20.6879 17.7169ZM20.8545 17.1714L20.8584 17.1699L20.8544 17.1714H20.8545ZM22.1154 18.1287C22.1154 18.2074 22.1698 18.2308 22.2326 18.2388C22.313 18.2448 22.4013 18.2448 22.4918 18.2348C22.5739 18.225 22.6446 18.1778 22.6797 18.1287C22.7109 18.0853 22.7286 18.0303 22.7405 17.9871H22.7973C22.7758 18.0991 22.7483 18.2095 22.7247 18.3215C22.5525 18.3215 22.3797 18.3137 22.2073 18.3137C22.0345 18.3137 21.8623 18.3215 21.6897 18.3215V18.2622H21.7167C21.7877 18.2622 21.8644 18.2526 21.8644 18.1306V17.1199C21.8644 17.0174 21.7876 17.0078 21.7167 17.0078H21.6897V16.9487C21.7933 16.9487 21.8955 16.9565 21.9992 16.9565C22.0995 16.9565 22.1974 16.9487 22.2975 16.9487V17.0078H22.2481C22.1739 17.0078 22.1154 17.0099 22.1154 17.1139V18.1287Z" fill="#211E1F"/>
<path d="M22.7247 18.3298C22.5519 18.3298 22.3794 18.3219 22.2074 18.3219C22.0347 18.3219 21.8622 18.3298 21.6894 18.3298H21.6811V18.2538H21.7167C21.7879 18.2521 21.855 18.2472 21.8558 18.1306V17.1196C21.855 17.024 21.7882 17.0175 21.7167 17.0161H21.6811V16.9403H21.6894C21.7937 16.9403 21.8958 16.9478 21.9994 16.9478C22.099 16.9478 22.1968 16.9403 22.2975 16.9403H22.3056V17.0161H22.2483C22.1723 17.0183 22.125 17.0147 22.1235 17.1139V18.1287C22.1241 18.2019 22.1719 18.2217 22.2331 18.2303C22.2678 18.2327 22.3041 18.2343 22.3419 18.2343C22.3899 18.2343 22.4398 18.2319 22.4904 18.2265C22.5703 18.2171 22.6391 18.1708 22.6728 18.1239C22.703 18.0819 22.7204 18.0279 22.7321 17.985L22.7339 17.9785H22.8077L22.8059 17.9889C22.7838 18.1013 22.7569 18.2113 22.7331 18.3231L22.7315 18.3299L22.7247 18.3298ZM22.7177 18.3127C22.7404 18.206 22.7661 18.1017 22.7872 17.9954H22.7469C22.7346 18.0382 22.7173 18.0909 22.6864 18.1339C22.6498 18.1849 22.5772 18.2329 22.4922 18.2434C22.4409 18.2487 22.39 18.2514 22.3418 18.2514C22.3039 18.2514 22.2671 18.2496 22.2316 18.2471C22.1678 18.2401 22.106 18.2127 22.1062 18.1287V17.1138C22.1062 17.0046 22.1752 16.999 22.2483 16.999H22.2889V16.9572C22.1922 16.9578 22.097 16.965 21.9994 16.965C21.8978 16.965 21.7986 16.9578 21.698 16.9572V16.999H21.7167C21.7867 16.999 21.8724 17.0112 21.8724 17.1195V18.1305C21.8724 18.2577 21.7871 18.271 21.7167 18.271H21.698V18.3126C21.8675 18.3124 22.037 18.3051 22.2074 18.3051C22.3778 18.3051 22.548 18.3124 22.7177 18.3126V18.3127ZM22.7735 16.8928C22.8917 16.8928 22.9799 16.9839 22.9799 17.1006C22.9799 17.2168 22.8917 17.307 22.7735 17.307C22.6554 17.307 22.567 17.2168 22.567 17.1006C22.567 16.9839 22.6554 16.8928 22.7735 16.8928ZM22.7735 17.2685C22.8658 17.2685 22.9369 17.1894 22.9369 17.1006C22.9369 17.0113 22.867 16.9315 22.7735 16.9315C22.6807 16.9315 22.6097 17.0113 22.6097 17.1006C22.6097 17.1894 22.6807 17.2685 22.7735 17.2685ZM22.6707 17.2097V17.1995C22.6962 17.1959 22.7008 17.1967 22.7008 17.1809V17.0277C22.7008 17.0061 22.6984 16.9987 22.6717 16.9999V16.9894H22.7773C22.8138 16.9894 22.8471 17.0067 22.8471 17.0443C22.8471 17.0751 22.8267 17.0979 22.7983 17.1067L22.8322 17.1542C22.848 17.1758 22.8658 17.1959 22.8777 17.203V17.2097H22.8374C22.8182 17.2097 22.8013 17.1689 22.7632 17.1143H22.7403V17.1831C22.7403 17.1967 22.7451 17.1959 22.7706 17.1995V17.2097H22.6707ZM22.7403 17.1006H22.7647C22.7914 17.1006 22.8038 17.0803 22.8038 17.0478C22.8038 17.0147 22.7846 17.0031 22.7634 17.0031H22.7403V17.1006ZM6.28344 14.0391C6.28344 13.7141 6.1144 13.7355 5.95232 13.7319V13.638C6.0928 13.645 6.2368 13.645 6.37752 13.645C6.5288 13.645 6.73432 13.638 7.00096 13.638C7.93392 13.638 8.442 14.2631 8.442 14.9031C8.442 15.261 8.2332 16.1607 6.9576 16.1607C6.77392 16.1607 6.6044 16.1536 6.4352 16.1536C6.27304 16.1536 6.1144 16.1572 5.95232 16.1607V16.0669C6.16832 16.0451 6.27312 16.0379 6.28336 15.792V14.0392L6.28344 14.0391ZM6.63664 15.7343C6.63664 16.0127 6.83504 16.0451 7.01144 16.0451C7.79 16.0451 8.0456 15.4559 8.0456 14.9174C8.0456 14.2418 7.61312 13.7539 6.91784 13.7539C6.76984 13.7539 6.70184 13.7645 6.63664 13.7683V15.7343ZM8.56848 16.0669H8.63672C8.73752 16.0669 8.80968 16.0669 8.80968 15.9474V14.9681C8.80968 14.8092 8.75568 14.7871 8.62232 14.7153V14.6574C8.7916 14.6063 8.9936 14.5382 9.00776 14.5273C9.0332 14.5128 9.05464 14.509 9.07272 14.509C9.09056 14.509 9.09808 14.5308 9.09808 14.5599V15.9474C9.09808 16.0669 9.17728 16.0669 9.27816 16.0669H9.33936V16.1609C9.21672 16.1609 9.09056 16.1537 8.96112 16.1537C8.83144 16.1537 8.7016 16.1572 8.56848 16.1609V16.0669ZM8.95392 13.9525C8.86008 13.9525 8.77744 13.8659 8.77744 13.7719C8.77744 13.6814 8.86392 13.598 8.95392 13.598C9.04728 13.598 9.13056 13.6743 9.13056 13.7719C9.13056 13.8695 9.05096 13.9525 8.95392 13.9525ZM9.68168 14.9896C9.68168 14.856 9.64184 14.82 9.47288 14.7513V14.6827C9.62768 14.6322 9.77528 14.5851 9.94832 14.5091C9.95904 14.5091 9.9696 14.5164 9.9696 14.5451V14.7802C10.1754 14.6322 10.352 14.509 10.5937 14.509C10.8996 14.509 11.0077 14.7331 11.0077 15.015V15.9474C11.0077 16.0669 11.0869 16.0669 11.1879 16.0669H11.2528V16.1609C11.1264 16.1609 11.0003 16.1537 10.8709 16.1537C10.741 16.1537 10.6112 16.1572 10.4817 16.1609V16.0669H10.5463C10.6475 16.0669 10.7191 16.0669 10.7191 15.9474V15.0115C10.7191 14.8053 10.5937 14.7043 10.3879 14.7043C10.2728 14.7043 10.089 14.7982 9.9696 14.8779V15.9473C9.9696 16.0669 10.0493 16.0669 10.1503 16.0669H10.215V16.1609C10.089 16.1609 9.96272 16.1537 9.83296 16.1537C9.70336 16.1537 9.57344 16.1572 9.44384 16.1609V16.0669H9.50888C9.60968 16.0669 9.68168 16.0669 9.68168 15.9473V14.9896ZM11.5268 15.1633C11.5193 15.1959 11.5193 15.25 11.5268 15.3731C11.548 15.7163 11.7684 15.9981 12.0562 15.9981C12.2546 15.9981 12.4098 15.8897 12.543 15.756L12.5932 15.8068C12.4274 16.0271 12.222 16.215 11.9268 16.215C11.3537 16.215 11.2384 15.6583 11.2384 15.4272C11.2384 14.7187 11.7139 14.509 11.966 14.509C12.258 14.509 12.5718 14.6932 12.5751 15.0763C12.5751 15.0983 12.5751 15.1197 12.5718 15.1416L12.5391 15.1633H11.5268ZM12.1647 15.0476C12.2546 15.0476 12.2652 15.0006 12.2652 14.9573C12.2652 14.773 12.1535 14.6247 11.9516 14.6247C11.7321 14.6247 11.5807 14.7871 11.5375 15.0476H12.1647ZM12.6581 16.0669H12.7554C12.856 16.0669 12.9281 16.0669 12.9281 15.9474V14.9319C12.9281 14.8199 12.795 14.7982 12.7408 14.7693V14.7153C13.0038 14.6031 13.1481 14.509 13.1808 14.509C13.2022 14.509 13.2128 14.5199 13.2128 14.5562V14.8814H13.2204C13.3103 14.7406 13.4619 14.509 13.6814 14.509C13.7716 14.509 13.8868 14.5703 13.8868 14.7006C13.8868 14.7982 13.8185 14.8852 13.7177 14.8852C13.6055 14.8852 13.6055 14.7982 13.4796 14.7982C13.4182 14.7982 13.2166 14.8814 13.2166 15.0983V15.9474C13.2166 16.0669 13.2886 16.0669 13.3896 16.0669H13.5912V16.1609C13.393 16.1572 13.2422 16.1537 13.087 16.1537C12.9393 16.1537 12.7878 16.1572 12.6582 16.1609L12.6581 16.0669ZM14.0454 15.6583C14.0924 15.8969 14.2363 16.0994 14.4995 16.0994C14.7117 16.0994 14.791 15.9693 14.791 15.8428C14.791 15.4163 14.0058 15.5536 14.0058 14.9718C14.0058 14.7693 14.1681 14.509 14.5642 14.509C14.6794 14.509 14.8342 14.5418 14.9747 14.6141L15.0002 14.9824H14.9172C14.8812 14.755 14.7553 14.6248 14.5244 14.6248C14.3803 14.6248 14.2435 14.708 14.2435 14.8632C14.2435 15.2864 15.0794 15.156 15.0794 15.7234C15.0794 15.9618 14.8884 16.2151 14.4595 16.2151C14.3154 16.2151 14.1462 16.1644 14.0202 16.0923L13.9804 15.6766L14.0454 15.6583ZM18.333 14.2922H18.2432C18.1746 13.8695 17.8756 13.6995 17.4722 13.6995C17.0575 13.6995 16.4558 13.9776 16.4558 14.845C16.4558 15.5755 16.975 16.0994 17.5297 16.0994C17.8863 16.0994 18.182 15.8537 18.2541 15.4741L18.3367 15.4956L18.2541 16.0233C18.1027 16.1175 17.6955 16.215 17.4574 16.215C16.6146 16.215 16.0814 15.6692 16.0814 14.856C16.0814 14.1151 16.7406 13.5836 17.4469 13.5836C17.7386 13.5836 18.0197 13.6779 18.2971 13.7756L18.333 14.2922ZM18.463 16.0669H18.5313C18.6323 16.0669 18.7046 16.0669 18.7046 15.9474V13.9346C18.7046 13.6995 18.6506 13.6923 18.5134 13.6526V13.5947C18.6576 13.5479 18.809 13.4827 18.8846 13.4392C18.9238 13.4176 18.953 13.3994 18.9637 13.3994C18.9857 13.3994 18.9929 13.4212 18.9929 13.4503V15.9474C18.9929 16.0669 19.072 16.0669 19.173 16.0669H19.2338V16.1609C19.1118 16.1609 18.9857 16.1537 18.8558 16.1537C18.7262 16.1537 18.5966 16.1572 18.463 16.1609V16.0669ZM20.7766 15.9618C20.7766 16.0271 20.8161 16.0307 20.8772 16.0307C20.9206 16.0307 20.9745 16.0271 21.0214 16.0271V16.1031C20.8664 16.1175 20.5709 16.1935 20.5024 16.215L20.4843 16.2041V15.9116C20.2683 16.0886 20.1024 16.215 19.8464 16.215C19.6518 16.215 19.4501 16.0886 19.4501 15.7852V14.8596C19.4501 14.7658 19.4357 14.6753 19.2343 14.6574V14.5886C19.3642 14.5851 19.6518 14.5634 19.6989 14.5634C19.7389 14.5634 19.7389 14.5887 19.7389 14.6682V15.6003C19.7389 15.709 19.7389 16.0197 20.0521 16.0197C20.1745 16.0197 20.3366 15.9258 20.4878 15.7997V14.8269C20.4878 14.7549 20.315 14.7153 20.1856 14.679V14.6139C20.5094 14.5922 20.7116 14.5634 20.7474 14.5634C20.7766 14.5634 20.7766 14.5886 20.7766 14.6286V15.9618ZM21.4936 14.7693C21.6376 14.6464 21.832 14.509 22.0304 14.509C22.4486 14.509 22.7005 14.8744 22.7005 15.268C22.7005 15.7415 22.3547 16.215 21.8391 16.215C21.5726 16.215 21.4322 16.1282 21.3383 16.0886L21.2305 16.1715L21.155 16.1319C21.187 15.9187 21.2054 15.709 21.2054 15.4887V13.9346C21.2054 13.6995 21.151 13.6923 21.0142 13.6526V13.5947C21.1587 13.5479 21.3096 13.4827 21.3854 13.4392C21.425 13.4176 21.4537 13.3994 21.4649 13.3994C21.4863 13.3994 21.4935 13.4212 21.4935 13.4503L21.4936 14.7693ZM21.4936 15.7523C21.4936 15.8897 21.6231 16.1212 21.8646 16.1212C22.2502 16.1212 22.4122 15.7415 22.4122 15.4197C22.4122 15.0295 22.117 14.7043 21.8359 14.7043C21.7022 14.7043 21.5908 14.7911 21.4935 14.8744L21.4936 15.7523ZM5.94824 18.2622H5.97584C6.04624 18.2622 6.12072 18.2526 6.12072 18.1502V17.1199C6.12072 17.0174 6.04624 17.0077 5.97584 17.0077H5.94824V16.9487C6.0248 16.9487 6.1424 16.9565 6.2388 16.9565C6.33664 16.9565 6.45416 16.9487 6.54632 16.9487V17.0077H6.51872C6.4484 17.0077 6.37376 17.0174 6.37376 17.1199V18.1502C6.37376 18.2526 6.4484 18.2622 6.51872 18.2622H6.54632V18.3215C6.45224 18.3215 6.33432 18.3137 6.23656 18.3137C6.14048 18.3137 6.0248 18.3215 5.94824 18.3215V18.2622Z" fill="#211E1F"/>
<path d="M6.54642 18.3298C6.4517 18.3298 6.33426 18.3219 6.23658 18.3219C6.14074 18.3219 6.02546 18.3298 5.94834 18.3298H5.93994V18.2537H5.97586C6.0469 18.2521 6.11162 18.2463 6.11234 18.1502V17.1199C6.11162 17.0238 6.0469 17.0174 5.97586 17.016H5.93994V16.9399H5.94834C6.02546 16.9399 6.1429 16.9477 6.23874 16.9477C6.33634 16.9477 6.4537 16.9399 6.54642 16.9399H6.55522V17.016H6.51898C6.44786 17.0174 6.38274 17.0238 6.38234 17.1199V18.1502C6.38274 18.2463 6.44786 18.252 6.51898 18.2537H6.55514V18.3297H6.54642V18.3298ZM6.53802 18.313V18.271H6.51898C6.44898 18.271 6.36562 18.2588 6.36522 18.1502V17.1199C6.36562 17.0112 6.44898 16.999 6.51898 16.999H6.53802V16.9572C6.44746 16.9572 6.33394 16.9649 6.23882 16.9649C6.14562 16.9649 6.0329 16.9578 5.95706 16.9572V16.999H5.97578C6.0457 16.999 6.12938 17.0112 6.12938 17.1199V18.1502C6.12938 18.2589 6.0457 18.271 5.97578 18.271H5.95706V18.313C6.0329 18.3122 6.1437 18.3051 6.23658 18.3051C6.33202 18.3051 6.44554 18.3124 6.53802 18.313ZM7.89338 17.9338L7.89738 17.9299V17.1926C7.89738 17.0311 7.78538 17.0078 7.72674 17.0078H7.68346V16.9486C7.77578 16.9486 7.86586 16.9564 7.95794 16.9564C8.03826 16.9564 8.11906 16.9487 8.1993 16.9487V17.0077H8.16994C8.08738 17.0077 7.99522 17.0234 7.99522 17.2573V18.1523C7.99522 18.2211 7.99722 18.2898 8.0069 18.3507H7.93226L6.92274 17.2219V18.0323C6.92274 18.2034 6.95578 18.2621 7.10698 18.2621H7.14018V18.3215C7.05602 18.3215 6.97186 18.3137 6.88738 18.3137C6.79938 18.3137 6.70914 18.3215 6.62082 18.3215V18.2621H6.64826C6.78354 18.2621 6.82458 18.1699 6.82458 18.0127V17.1844C6.82458 17.0744 6.73418 17.0077 6.64634 17.0077H6.62074V16.9487C6.6953 16.9487 6.7717 16.9564 6.8461 16.9564C6.90498 16.9564 6.96194 16.9487 7.02066 16.9487L7.89338 17.9338Z" fill="#211E1F"/>
<path d="M8.00686 18.3594L7.92606 18.3563L6.93102 17.2442V18.0323C6.93342 18.2033 6.95934 18.2518 7.10702 18.2537H7.14902V18.3298H7.14022C7.05542 18.3298 6.97102 18.3219 6.88742 18.3219C6.79958 18.3219 6.70958 18.3299 6.62062 18.3299H6.61206V18.2537H6.64822C6.77782 18.2531 6.81478 18.1696 6.81622 18.0128V17.1846C6.81598 17.0799 6.73038 17.0163 6.6463 17.0161H6.61206V16.9403H6.62062C6.69558 16.9403 6.77238 16.9478 6.8459 16.9478C6.9043 16.9478 6.9611 16.9403 7.02718 16.9431L7.88878 17.9159V17.1927C7.88774 17.0363 7.78374 17.0175 7.72662 17.0161H7.6747V16.9403H7.68342C7.77606 16.9403 7.8663 16.9478 7.9579 16.9478C8.03774 16.9478 8.11806 16.9403 8.1991 16.9403H8.20766V17.016H8.1699C8.08902 17.0184 8.0059 17.0255 8.00366 17.2574V18.1523C8.00366 18.221 8.00566 18.2897 8.01518 18.3493L8.0171 18.3594H8.00686ZM7.93246 18.342H7.99726C7.98846 18.283 7.98686 18.2175 7.98686 18.1523V17.2574C7.98686 17.0214 8.0855 16.999 8.1699 16.999H8.19062V16.9573C8.11334 16.9579 8.0359 16.9649 7.95798 16.9649C7.86822 16.9649 7.78094 16.9579 7.69214 16.9573L7.69206 16.999H7.7267C7.78694 16.999 7.9059 17.026 7.9059 17.1927L7.90318 17.9359L7.89918 17.9399L7.89262 17.9461L7.02062 16.9573C6.96246 16.9573 6.90566 16.9649 6.84598 16.9649C6.77398 16.9649 6.70046 16.9579 6.62942 16.9573L6.62894 16.999H6.64638C6.73838 16.999 6.83294 17.0695 6.83294 17.1846V18.0127C6.83294 18.1699 6.78926 18.2706 6.6483 18.2711L6.62942 18.2706V18.313C6.71438 18.3122 6.80166 18.3051 6.88742 18.3051C6.96926 18.3051 7.0507 18.3123 7.13174 18.3131V18.2711H7.10694C6.9527 18.2706 6.91438 18.2032 6.91414 18.0323V17.1999L7.93246 18.342ZM7.88886 17.9299V17.9292L7.88726 17.9279L7.88886 17.9299ZM8.49286 17.0469C8.34558 17.0469 8.34006 17.0823 8.31062 17.2258H8.25174C8.2595 17.1708 8.26934 17.1159 8.27526 17.0586C8.28318 17.0035 8.28694 16.9487 8.28694 16.8917H8.33414C8.3499 16.9507 8.39894 16.9487 8.45206 16.9487H9.46342C9.51646 16.9487 9.56542 16.9468 9.5695 16.8876L9.61622 16.8955C9.60862 16.9487 9.6007 17.0018 9.59478 17.0549C9.59126 17.1079 9.59126 17.1611 9.59126 17.2141L9.53222 17.236C9.52814 17.1633 9.51838 17.0469 9.38718 17.0469H9.06558V18.0932C9.06558 18.2448 9.1343 18.2622 9.22806 18.2622H9.2655V18.3215C9.18902 18.3215 9.05158 18.3137 8.94598 18.3137C8.82838 18.3137 8.69094 18.3215 8.61438 18.3215V18.2622H8.65174C8.75982 18.2622 8.81446 18.2525 8.81446 18.0973V17.0469H8.49286Z" fill="#211E1F"/>
<path d="M9.26587 18.3298C9.18867 18.3298 9.05147 18.3219 8.94611 18.3219C8.82867 18.3219 8.69147 18.3298 8.61451 18.3298H8.60635V18.2537H8.65195C8.75995 18.2511 8.80347 18.2497 8.80595 18.0973V17.0554H8.49291V17.038H8.82283V18.0972C8.82283 18.255 8.75955 18.2709 8.65187 18.2711H8.62307V18.3125C8.70035 18.3121 8.83227 18.305 8.94603 18.305C9.04827 18.305 9.17939 18.3121 9.25683 18.3125V18.2711H9.22819C9.13339 18.2709 9.05715 18.2476 9.05715 18.0931V17.038H9.38723C9.51883 17.0386 9.53603 17.1508 9.54035 17.2238L9.58259 17.2081C9.58259 17.1568 9.58291 17.1054 9.58643 17.0536C9.59211 17.003 9.59931 16.9528 9.60667 16.9027L9.57675 16.8976C9.56763 16.9549 9.51259 16.9577 9.46315 16.9572H8.44203C8.39595 16.9572 8.34555 16.955 8.32795 16.9001H8.29563C8.29539 16.9535 8.29163 17.0067 8.28403 17.0595C8.27835 17.1136 8.26939 17.1655 8.26203 17.2175H8.30403C8.32987 17.0804 8.34667 17.036 8.49291 17.038V17.0554C8.34803 17.0579 8.35107 17.0825 8.31915 17.2279L8.31763 17.2345H8.24219L8.24331 17.2243C8.25115 17.1692 8.26107 17.1144 8.26691 17.0571C8.27507 17.0026 8.27891 16.948 8.27891 16.8915V16.883H8.34107L8.34243 16.8891C8.35587 16.9387 8.39219 16.9391 8.44203 16.9399H9.46339C9.51803 16.9391 9.55779 16.9383 9.56115 16.8868L9.56195 16.8775L9.57075 16.8795L9.62611 16.8883L9.62491 16.8967C9.61671 16.9495 9.60959 17.0024 9.60355 17.0554C9.59955 17.1077 9.59955 17.1609 9.59955 17.2139V17.2201L9.59419 17.2223L9.52467 17.2476L9.52419 17.2361C9.51899 17.1623 9.51123 17.0553 9.38739 17.0553H9.07443V18.0931C9.07619 18.2415 9.13491 18.2517 9.22827 18.2535H9.27427V18.3296H9.26595L9.26587 18.3298ZM9.67907 18.2621H9.70667C9.77707 18.2621 9.85171 18.2526 9.85171 18.1502V17.1199C9.85171 17.0174 9.77715 17.0077 9.70667 17.0077H9.67907V16.9487C9.79843 16.9487 10.0027 16.9564 10.1671 16.9564C10.3321 16.9564 10.5356 16.9487 10.6688 16.9487C10.6658 17.0489 10.6672 17.1493 10.6732 17.2495L10.614 17.2653C10.6047 17.1375 10.5812 17.0354 10.3751 17.0354H10.1028V17.5504H10.3359C10.4535 17.5504 10.4791 17.4837 10.4907 17.3772H10.5495C10.5416 17.5286 10.5416 17.6802 10.5495 17.8316L10.4907 17.8434C10.4792 17.7255 10.4732 17.6488 10.3378 17.6488H10.1029V18.1068C10.1029 18.2348 10.2161 18.2348 10.3418 18.2348C10.5771 18.2348 10.6808 18.2189 10.7397 17.9951L10.7947 18.0085C10.7685 18.1119 10.7464 18.2163 10.7282 18.3215C10.6026 18.3215 10.377 18.3137 10.2007 18.3137C10.0239 18.3137 9.79091 18.3215 9.67915 18.3215L9.67907 18.2621Z" fill="#211E1F"/>
<path d="M10.7279 18.3298C10.6019 18.3298 10.3766 18.3218 10.2005 18.3218C10.0239 18.3218 9.79089 18.3298 9.67889 18.3298H9.67065V18.2538H9.70641C9.77753 18.2527 9.84193 18.2463 9.84289 18.1503V17.1199C9.84193 17.0239 9.77753 17.0175 9.70641 17.016H9.67065V16.9403H9.67889C9.79857 16.9403 10.0025 16.9478 10.1669 16.9478C10.3318 16.9478 10.5352 16.9403 10.6687 16.9403H10.6775L10.6771 16.9491C10.6757 16.9829 10.6751 17.0167 10.6752 17.0506C10.6752 17.1186 10.6771 17.1929 10.6811 17.249L10.6814 17.256L10.6748 17.2579L10.6059 17.2759L10.6055 17.2659C10.5939 17.1383 10.577 17.0457 10.3751 17.0438H10.1109L10.1107 17.5415H10.3358C10.4486 17.5405 10.4689 17.4825 10.4822 17.3766L10.483 17.3688H10.5581L10.5579 17.3776C10.554 17.4542 10.5519 17.5309 10.5517 17.6075C10.5517 17.6819 10.5541 17.7566 10.5579 17.8315L10.5581 17.8384L10.551 17.84L10.483 17.8536L10.4822 17.8444C10.4687 17.7244 10.4678 17.6587 10.3375 17.6572L10.1109 17.6571V18.1069C10.1111 18.2263 10.2138 18.2256 10.3416 18.2263C10.5776 18.225 10.6723 18.2135 10.7315 17.9926L10.7334 17.9847L10.7416 17.9863L10.8044 18.0024L10.8025 18.0106C10.7772 18.1147 10.7537 18.2187 10.7361 18.3228L10.7345 18.3298H10.7279ZM10.7207 18.3127C10.7384 18.2127 10.7596 18.1134 10.7842 18.015L10.7454 18.0051C10.6867 18.2252 10.573 18.2448 10.3416 18.2434C10.2182 18.2434 10.0944 18.2434 10.0939 18.1068V17.6403H10.3375C10.4744 17.6387 10.4884 17.7217 10.4981 17.8336L10.5405 17.8248C10.533 17.6786 10.533 17.5321 10.5405 17.3859L10.4981 17.3859C10.4872 17.4883 10.4553 17.5603 10.3357 17.5589H10.0939V17.0266H10.3751C10.5791 17.0251 10.6128 17.1307 10.6215 17.2544L10.6639 17.243C10.6601 17.1789 10.6582 17.1147 10.6581 17.0506C10.6581 17.0169 10.6589 16.9851 10.66 16.9573C10.5268 16.9579 10.3283 16.9649 10.1669 16.9649C10.0058 16.9649 9.80745 16.9579 9.68737 16.9573V16.999H9.70641C9.77625 16.999 9.85977 17.0113 9.86001 17.1199V18.1503C9.85977 18.2586 9.77625 18.2706 9.70641 18.2711H9.68737V18.3126C9.80177 18.3125 10.0282 18.3051 10.2005 18.3051C10.3734 18.3051 10.5942 18.3125 10.7207 18.3126V18.3127ZM11.0591 17.1571C11.0591 17.0136 10.9808 17.0077 10.9198 17.0077H10.8846V16.9485C10.9474 16.9485 11.0687 16.9565 11.1884 16.9565C11.306 16.9565 11.4003 16.9485 11.504 16.9485C11.7508 16.9485 11.9707 17.0155 11.9707 17.2951C11.9707 17.4716 11.8531 17.5799 11.6983 17.6411L12.0335 18.1443C12.0883 18.2275 12.1274 18.2507 12.2236 18.2622V18.3215C12.1588 18.3215 12.0961 18.3137 12.0315 18.3137C11.9707 18.3137 11.9078 18.3215 11.8472 18.3215C11.6963 18.1228 11.5667 17.9103 11.4392 17.684H11.3103V18.1051C11.3103 18.2567 11.3805 18.2622 11.4707 18.2622H11.506V18.3215C11.394 18.3215 11.2807 18.3137 11.1688 18.3137C11.0746 18.3137 10.9824 18.3215 10.8846 18.3215V18.2622H10.9198C10.9926 18.2622 11.0591 18.2291 11.0591 18.1562V17.157L11.0591 17.1571ZM11.3103 17.6133H11.4059C11.6021 17.6133 11.7078 17.5386 11.7078 17.3065C11.7078 17.1317 11.5961 17.0195 11.4214 17.0195C11.3626 17.0195 11.3375 17.0256 11.3102 17.0274V17.6133H11.3103Z" fill="#211E1F"/>
<path d="M12.2237 18.3298C12.158 18.3298 12.0956 18.3219 12.0311 18.3219C11.9713 18.3219 11.9087 18.3299 11.8404 18.3265C11.69 18.1287 11.5612 17.9175 11.4344 17.6927H11.3185V18.1048C11.3206 18.2528 11.3799 18.2515 11.4705 18.2537H11.5145V18.3299H11.5057C11.3937 18.3299 11.28 18.3219 11.1686 18.3219C11.0749 18.3219 10.983 18.3299 10.8846 18.3299H10.876V18.2537H10.9197C10.9905 18.2533 11.0501 18.2225 11.0503 18.1563V17.1571C11.0488 17.0175 10.9807 17.0183 10.9197 17.0163H10.876V16.94H10.8845C10.9481 16.94 11.069 16.9478 11.1885 16.9478C11.3055 16.9478 11.3997 16.94 11.5041 16.94C11.7512 16.9406 11.9788 17.009 11.9794 17.2945C11.9794 17.4722 11.8624 17.5831 11.711 17.6449L12.0405 18.1396C12.0953 18.2212 12.1294 18.2415 12.2249 18.2537L12.2321 18.2548V18.3299L12.2237 18.3298ZM11.3101 17.6756H11.4441L11.4464 17.6799C11.5741 17.9059 11.7029 18.118 11.8473 18.3131C11.9071 18.3131 11.9701 18.305 12.0311 18.305C12.0937 18.305 12.1541 18.3118 12.2152 18.3127V18.2697C12.1232 18.2582 12.0801 18.2307 12.0265 18.149L11.6853 17.637L11.6949 17.633C11.8484 17.5725 11.9619 17.4674 11.9621 17.2945C11.9619 17.0217 11.7506 16.9584 11.5041 16.9573C11.4007 16.9573 11.3065 16.9651 11.1885 16.9651C11.0733 16.9651 10.957 16.9579 10.8929 16.9573V16.999H10.9197C10.9807 16.9991 11.0674 17.0092 11.0674 17.1571V18.1563C11.0674 18.2351 10.9936 18.2711 10.9197 18.2713H10.8929V18.3127C10.9873 18.3125 11.0765 18.305 11.1686 18.305C11.2782 18.305 11.3889 18.3125 11.4973 18.3127V18.2713H11.4705C11.3811 18.2711 11.3014 18.26 11.3014 18.1048V17.6756H11.31H11.3101ZM11.3101 17.6216H11.3014V17.0195L11.3089 17.0188C11.3357 17.0167 11.3622 17.0111 11.4215 17.0111C11.6001 17.0111 11.7162 17.1276 11.7165 17.3069C11.716 17.5417 11.6037 17.6215 11.406 17.6215H11.31L11.3101 17.6216ZM11.406 17.6047C11.6001 17.6031 11.6977 17.5355 11.6998 17.3069C11.6987 17.1351 11.5922 17.0285 11.4214 17.0278C11.3685 17.0278 11.3436 17.0327 11.3185 17.0349V17.6047H11.406ZM13.5548 17.9339L13.5584 17.93V17.1927C13.5584 17.0312 13.4468 17.0078 13.388 17.0078H13.345V16.9487C13.437 16.9487 13.5271 16.9565 13.6194 16.9565C13.6999 16.9565 13.78 16.9487 13.8609 16.9487V17.0078H13.8313C13.7489 17.0078 13.6568 17.0234 13.6568 17.2574V18.1524C13.6568 18.2211 13.6587 18.2899 13.6684 18.3508H13.594L12.5844 17.222V18.0323C12.5844 18.2035 12.6177 18.2622 12.7685 18.2622H12.8019V18.3215C12.7177 18.3215 12.6333 18.3137 12.5491 18.3137C12.4606 18.3137 12.3705 18.3215 12.2824 18.3215V18.2622H12.3096C12.445 18.2622 12.4862 18.17 12.4862 18.0128V17.1845C12.4862 17.0744 12.3961 17.0077 12.308 17.0077H12.2824V16.9487C12.3566 16.9487 12.4334 16.9565 12.5078 16.9565C12.5662 16.9565 12.6233 16.9487 12.6822 16.9487L13.5548 17.9339Z" fill="#211E1F"/>
<path d="M13.6684 18.3593L13.5876 18.3566L12.5926 17.2443V18.0323C12.5949 18.2033 12.6207 18.2519 12.7686 18.2538H12.8102V18.3298H12.8015C12.7167 18.3298 12.6327 18.3218 12.5486 18.3218C12.461 18.3218 12.3705 18.3298 12.2822 18.3298H12.2734V18.2538H12.3094C12.4389 18.2532 12.476 18.1696 12.4773 18.0123V17.1845C12.4771 17.0797 12.3916 17.0163 12.3078 17.0161H12.2734V16.9401H12.2822C12.357 16.9401 12.4338 16.9478 12.5077 16.9478C12.5653 16.9478 12.6222 16.94 12.688 16.9427L13.5498 17.916V17.1925C13.5493 17.0363 13.4449 17.0169 13.3879 17.0161H13.3361V16.9401H13.3447C13.4374 16.9401 13.5277 16.9478 13.6193 16.9478C13.6993 16.9478 13.7796 16.94 13.8604 16.94H13.8689V17.0161H13.8313C13.7504 17.0183 13.667 17.0255 13.665 17.2575V18.1523C13.665 18.2211 13.6667 18.2892 13.6766 18.3497L13.6778 18.3593H13.6684ZM13.5939 18.3421H13.6583C13.6498 18.2831 13.6478 18.2176 13.6478 18.1523V17.2575C13.648 17.0215 13.7472 16.9996 13.8313 16.9989H13.8518V16.9573C13.7748 16.9579 13.6972 16.965 13.6193 16.965C13.5293 16.965 13.4418 16.9579 13.353 16.9573V16.9989H13.3879C13.4482 16.9996 13.5671 17.0261 13.5671 17.1925L13.5644 17.9359L13.5606 17.9399L13.5546 17.9463L12.682 16.9574C12.6238 16.9574 12.567 16.965 12.5077 16.965C12.4351 16.965 12.3618 16.9579 12.2905 16.9574V16.999H12.3078C12.3998 16.9996 12.4944 17.0693 12.4944 17.1845V18.0123C12.4944 18.1702 12.4501 18.2707 12.3095 18.2712L12.2905 18.2711V18.3127C12.3751 18.3123 12.4626 18.3051 12.5486 18.3051C12.6309 18.3051 12.7123 18.3123 12.7934 18.3127V18.2712H12.7686C12.6142 18.2711 12.5756 18.2033 12.5753 18.0322V17.2002L13.5939 18.3421ZM13.5498 17.93V17.9294L13.5482 17.9279L13.5498 17.93ZM14.1761 18.0402C14.1562 18.1069 14.1326 18.1584 14.1326 18.1935C14.1326 18.2527 14.2151 18.2623 14.2796 18.2623H14.3014V18.3215C14.2223 18.3167 14.1431 18.3142 14.0638 18.3137C13.9933 18.3137 13.923 18.3173 13.8524 18.3215V18.2622H13.8642C13.9406 18.2622 14.0055 18.2171 14.0344 18.1343L14.3485 17.2319C14.3738 17.1591 14.4094 17.0607 14.4213 16.9879C14.4837 16.9665 14.5622 16.9271 14.5994 16.9035C14.6054 16.9015 14.6089 16.8994 14.615 16.8994C14.6209 16.8994 14.6246 16.8994 14.629 16.9055C14.6347 16.9211 14.6404 16.9389 14.6467 16.9546L15.0074 17.9832C15.0309 18.0519 15.0542 18.1247 15.0796 18.1838C15.1032 18.2389 15.1446 18.2622 15.2094 18.2622H15.221V18.3215C15.1309 18.3168 15.0407 18.3142 14.9506 18.3138C14.8544 18.3138 14.7562 18.3173 14.6562 18.3215V18.2622H14.6779C14.7228 18.2622 14.7995 18.2546 14.7995 18.2054C14.7995 18.1798 14.7818 18.1268 14.7599 18.0637L14.6837 17.8355H14.2386L14.1761 18.0403V18.0402ZM14.4622 17.169H14.4582L14.2758 17.7255H14.6422L14.4622 17.169Z" fill="#211E1F"/>
<path d="M15.2203 18.3298C15.1321 18.3258 15.0438 18.3218 14.9505 18.3218C14.8543 18.3218 14.7567 18.3258 14.6563 18.3298L14.6475 18.3303V18.2535H14.6777C14.7231 18.2535 14.7905 18.2431 14.7905 18.2053C14.7911 18.1829 14.7734 18.129 14.7518 18.0663L14.6772 17.8439H14.2447L14.1838 18.0427C14.1639 18.1097 14.1404 18.1617 14.1405 18.1937C14.1412 18.2417 14.2145 18.2535 14.2795 18.2535H14.3097V18.3303L14.3009 18.3298C14.2224 18.3258 14.1423 18.3218 14.0641 18.3218C13.9938 18.3218 13.9232 18.3258 13.8529 18.3298L13.8438 18.3303V18.2535H13.864C13.937 18.2531 13.9979 18.2116 14.0262 18.1315L14.3402 17.2291C14.3658 17.1561 14.4012 17.0581 14.4181 16.9797C14.4801 16.9575 14.5398 16.9293 14.5961 16.8953C14.6016 16.8935 14.607 16.8907 14.615 16.8907C14.6193 16.8906 14.6236 16.8915 14.6274 16.8936C14.6312 16.8956 14.6344 16.8986 14.6366 16.9023C14.6422 16.9184 14.6484 16.9359 14.6543 16.9519L15.0154 17.9803C15.0386 18.0494 15.062 18.122 15.0875 18.1801C15.1102 18.2326 15.1463 18.2532 15.2093 18.2535H15.2293V18.3303L15.2203 18.3298ZM14.6646 18.3122C14.7618 18.3088 14.8568 18.305 14.9505 18.305C15.0415 18.305 15.1268 18.3088 15.2121 18.3122V18.2711H15.2093C15.1422 18.2715 15.0957 18.2451 15.0717 18.1871C15.0461 18.1275 15.0222 18.0545 14.9993 17.9856L14.6382 16.9573C14.6323 16.9416 14.6265 16.9237 14.6214 16.9099C14.6198 16.9079 14.6201 16.9079 14.6185 16.9079H14.615C14.6109 16.9079 14.6086 16.9091 14.6036 16.9105C14.5658 16.9352 14.4871 16.9738 14.429 16.9892C14.4169 17.0636 14.3817 17.1618 14.3561 17.2347L14.0424 18.1372C14.0125 18.2226 13.9437 18.2713 13.864 18.2711H13.8609V18.3122C13.9281 18.3088 13.9961 18.305 14.0641 18.305C14.1398 18.305 14.2173 18.3088 14.2921 18.3122V18.2711H14.2795C14.2157 18.2703 14.1265 18.2631 14.1241 18.1937C14.1242 18.1545 14.1483 18.1041 14.1674 18.0377L14.176 18.0403L14.1674 18.0375L14.232 17.8272H14.6891L14.7678 18.0609C14.7898 18.1241 14.8077 18.1764 14.8077 18.2053C14.8049 18.2657 14.7221 18.2699 14.6777 18.2711H14.6646V18.3122ZM14.2638 17.7339L14.4516 17.1603H14.4622H14.4681L14.6541 17.7339H14.2638ZM14.2873 17.7169H14.6305L14.4599 17.1899L14.2873 17.7169ZM15.3071 17.0469C15.1599 17.0469 15.1542 17.0823 15.1246 17.2258H15.0657C15.0734 17.1708 15.0833 17.1159 15.0895 17.0586C15.0974 17.0035 15.1009 16.9487 15.1009 16.8917H15.1482C15.1639 16.9507 15.2131 16.9487 15.2657 16.9487H16.2778C16.3303 16.9487 16.3793 16.9468 16.3833 16.8876L16.4302 16.8955C16.4228 16.9487 16.415 17.0018 16.409 17.0549C16.4048 17.1079 16.4048 17.1611 16.4048 17.2141L16.3461 17.2359C16.3424 17.1633 16.3326 17.0469 16.2012 17.0469H15.8796V18.0932C15.8796 18.2448 15.9484 18.2622 16.0422 18.2622H16.0794V18.3215C16.003 18.3215 15.866 18.3137 15.76 18.3137C15.6425 18.3137 15.505 18.3215 15.4286 18.3215V18.2622H15.4657C15.5737 18.2622 15.6288 18.2525 15.6288 18.0973V17.0469H15.3071Z" fill="#211E1F"/>
<path d="M16.0796 18.3298C16.0026 18.3298 15.8653 18.3218 15.7601 18.3218C15.6429 18.3218 15.5056 18.3298 15.4287 18.3298H15.4201V18.2537H15.4658C15.5739 18.2511 15.6173 18.2497 15.6201 18.0973L15.6197 17.0555H15.3072V17.0381H15.637V18.0973C15.637 18.2551 15.5735 18.2706 15.4658 18.2709H15.437V18.313C15.5146 18.3122 15.6463 18.3051 15.7601 18.3051C15.8625 18.3051 15.9935 18.3122 16.071 18.313V18.271H16.0421C15.9478 18.2706 15.8714 18.2478 15.8712 18.0932V17.0381H16.2013C16.3329 17.0387 16.3501 17.1509 16.3538 17.2238L16.3966 17.2081C16.3966 17.1569 16.3968 17.1055 16.4006 17.0539C16.406 17.0033 16.4133 16.9529 16.4206 16.9027L16.3909 16.8976C16.382 16.9549 16.3266 16.9581 16.2778 16.9572H15.2559C15.2097 16.9578 15.1597 16.9551 15.1418 16.8999H15.1098C15.1095 16.9533 15.1055 17.0067 15.0978 17.0596C15.0926 17.1138 15.0829 17.1659 15.0757 17.2175H15.1177C15.1437 17.0805 15.1606 17.036 15.3072 17.0381V17.0555C15.1618 17.0579 15.1651 17.0826 15.133 17.2279L15.1315 17.2346H15.0559L15.0571 17.2247C15.0653 17.1693 15.0751 17.1144 15.0808 17.0575C15.0888 17.0027 15.0926 16.9481 15.0926 16.8916V16.8831H15.1546L15.1562 16.8892C15.17 16.9388 15.2057 16.9391 15.2559 16.9399L15.2658 16.9402H16.2778C16.3319 16.9391 16.3714 16.9383 16.3749 16.8871L16.3754 16.8776L16.3846 16.8795L16.4402 16.8883L16.4388 16.8968C16.4306 16.9496 16.4234 17.0024 16.4173 17.0555C16.4133 17.1078 16.4133 17.1611 16.4133 17.214V17.2202L16.4078 17.2223L16.3382 17.2477L16.3379 17.2362C16.3329 17.1623 16.3251 17.0554 16.2013 17.0554H15.8881V18.0932C15.8902 18.2415 15.9488 18.2518 16.0421 18.2537H16.088V18.3297H16.0796V18.3298ZM16.5028 18.2621H16.5302C16.601 18.2621 16.6751 18.2526 16.6751 18.1501V17.1199C16.6751 17.0174 16.601 17.0077 16.5303 17.0077H16.5028V16.9487C16.5793 16.9487 16.6968 16.9564 16.7926 16.9564C16.891 16.9564 17.0086 16.9487 17.1009 16.9487V17.0077H17.0733C17.0028 17.0077 16.9281 17.0174 16.9281 17.1199V18.1502C16.9281 18.2526 17.0028 18.2622 17.0733 18.2622H17.1009V18.3214C17.0066 18.3214 16.8889 18.3137 16.7911 18.3137C16.6949 18.3137 16.5793 18.3215 16.5028 18.3215V18.2621Z" fill="#211E1F"/>
<path d="M17.1008 18.3298C17.0061 18.3298 16.8887 18.3218 16.7909 18.3218C16.6951 18.3218 16.5793 18.3298 16.5027 18.3298H16.4941V18.2537H16.5301C16.601 18.2526 16.666 18.2465 16.6663 18.1502V17.1199C16.666 17.0239 16.601 17.0174 16.5301 17.016H16.4941V16.9403H16.5027C16.5793 16.9403 16.697 16.9477 16.7925 16.9477C16.8903 16.9477 17.0079 16.9403 17.1008 16.9403H17.1091V17.016H17.0733C17.0017 17.0174 16.9373 17.0239 16.9364 17.1199V18.1502C16.9373 18.2465 17.0017 18.2526 17.0733 18.2537H17.1091V18.3297H17.1008V18.3298ZM17.092 18.3126V18.271H17.0733C17.003 18.271 16.9198 18.2586 16.9198 18.1502V17.1199C16.9198 17.0112 17.003 16.999 17.0733 16.999H17.092V16.9573C17.0014 16.9578 16.8881 16.9649 16.7925 16.9649C16.6997 16.9649 16.5873 16.9578 16.5113 16.9573V16.999H16.5302C16.5999 16.999 16.6834 17.0112 16.6837 17.1199V18.1502C16.6834 18.2586 16.5999 18.271 16.5302 18.271H16.5113V18.3126C16.5869 18.3118 16.6978 18.3051 16.7909 18.3051C16.886 18.3051 16.9995 18.3122 17.0919 18.3126H17.092ZM17.8826 16.9192C18.3005 16.9192 18.6337 17.1791 18.6337 17.5979C18.6337 18.0503 18.3102 18.3509 17.8929 18.3509C17.4768 18.3509 17.1594 18.0677 17.1594 17.6449C17.1594 17.2359 17.4749 16.9192 17.8826 16.9192ZM17.9122 18.2643C18.2927 18.2643 18.3589 17.9278 18.3589 17.6411C18.3589 17.3536 18.2045 17.0057 17.8789 17.0057C17.5357 17.0057 17.4338 17.3124 17.4338 17.5758C17.4338 17.9278 17.5945 18.2643 17.9122 18.2643Z" fill="#211E1F"/>
<path d="M17.1509 17.6449C17.1517 17.2312 17.4709 16.9112 17.8827 16.9107V16.9275C17.4798 16.9275 17.1678 17.2402 17.1675 17.6449C17.1684 18.063 17.4813 18.3419 17.893 18.342C18.3062 18.3419 18.6251 18.0455 18.6258 17.5975C18.6254 17.184 18.2972 16.9281 17.8827 16.9275V16.9107C18.3039 16.9109 18.6415 17.1734 18.6424 17.5975C18.642 18.0546 18.3143 18.3584 17.893 18.3592C17.4737 18.3584 17.1517 18.0723 17.1509 17.6448V17.6449ZM17.4255 17.5758C17.4261 17.3113 17.5291 16.9968 17.8791 16.9968C18.2119 16.9976 18.3674 17.3522 18.3679 17.6411C18.3673 17.9279 18.3 18.2725 17.9126 18.2725V18.2559C18.2854 18.2554 18.3499 17.9279 18.3509 17.6411C18.3509 17.356 18.1978 17.0147 17.8791 17.0143C17.5427 17.0147 17.4431 17.3139 17.4426 17.5758C17.4428 17.926 17.602 18.2551 17.9126 18.2559V18.2725C17.587 18.2721 17.4261 17.9299 17.4255 17.5757V17.5758ZM19.9551 17.9339L19.9591 17.93V17.1927C19.9591 17.0312 19.8471 17.0078 19.7882 17.0078H19.7458V16.9487C19.8377 16.9487 19.9278 16.9564 20.0197 16.9564C20.1003 16.9564 20.1806 16.9487 20.2612 16.9487V17.0078H20.2316C20.1494 17.0078 20.0571 17.0234 20.0571 17.2574V18.1524C20.0571 18.2211 20.059 18.2899 20.069 18.3508H19.9946L18.9846 17.222V18.0323C18.9846 18.2035 19.0178 18.2622 19.1687 18.2622H19.2023V18.3215C19.1178 18.3215 19.0338 18.3137 18.9494 18.3137C18.8612 18.3137 18.7708 18.3215 18.6826 18.3215V18.2622H18.7102C18.8457 18.2622 18.8863 18.17 18.8863 18.0128V17.1845C18.8863 17.0744 18.7966 17.0077 18.7081 17.0077H18.6825V16.9487C18.757 16.9487 18.8336 16.9565 18.9079 16.9565C18.9668 16.9565 19.0235 16.9487 19.0826 16.9487L19.9551 17.9339Z" fill="#211E1F"/>
<path d="M20.0689 18.3593L19.9878 18.3564L18.993 17.2442V18.0323C18.9951 18.2033 19.021 18.2517 19.1683 18.2535H19.2107V18.3299H19.2022C19.1172 18.3299 19.033 18.3219 18.9493 18.3219C18.8613 18.3219 18.7713 18.3299 18.6822 18.3299H18.6741V18.2535H18.71C18.8393 18.2531 18.8764 18.1696 18.878 18.0128V17.1845C18.8778 17.0798 18.7922 17.0163 18.7079 17.0161H18.6741V16.9403H18.6822C18.7574 16.9403 18.8338 16.9478 18.9078 16.9478C18.966 16.9478 19.0226 16.9403 19.0889 16.9431L19.9503 17.916V17.1928C19.9498 17.0363 19.8454 17.0175 19.7879 17.0161H19.7365V16.9403H19.7453C19.8376 16.9403 19.928 16.9479 20.0193 16.9479C20.0998 16.9479 20.1797 16.9403 20.261 16.9403H20.2694V17.0161H20.2314C20.1507 17.0185 20.0673 17.0258 20.0656 17.2575V18.1523C20.0656 18.2211 20.0671 18.2896 20.0766 18.3498L20.0782 18.3593H20.0689ZM19.9945 18.3421H20.0586C20.05 18.2831 20.0486 18.2176 20.0486 18.1523V17.2575C20.0486 17.021 20.1474 16.9996 20.2314 16.9989H20.2526V16.9573C20.1753 16.9579 20.0978 16.965 20.0194 16.965C19.9302 16.965 19.8424 16.9579 19.7537 16.9573V16.9989H19.7881C19.8489 16.9996 19.9671 17.0265 19.9671 17.1928L19.965 17.9359L19.9613 17.9399L19.955 17.9463L19.0824 16.9574C19.0246 16.9574 18.9674 16.965 18.9078 16.965C18.8357 16.965 18.7621 16.9579 18.6907 16.9574V16.999H18.708C18.8 16.9996 18.8948 17.0693 18.8948 17.1845V18.0128C18.8948 18.17 18.851 18.2707 18.71 18.2712L18.6907 18.2711V18.3127C18.7758 18.3123 18.8631 18.3051 18.9493 18.3051C19.031 18.3051 19.1122 18.3123 19.1937 18.3127V18.2712H19.1683C19.0145 18.2711 18.976 18.2033 18.976 18.0323V17.1999L19.9944 18.3421H19.9945ZM19.9504 17.93V17.9294L19.9488 17.9279L19.9504 17.93ZM20.5761 18.0402C20.5569 18.1069 20.5331 18.1584 20.5331 18.1935C20.5331 18.2527 20.6157 18.2623 20.68 18.2623H20.7018V18.3215C20.6228 18.3168 20.5436 18.3142 20.4645 18.3137C20.3936 18.3137 20.3234 18.3173 20.253 18.3215V18.2622H20.2642C20.341 18.2622 20.406 18.2171 20.435 18.1343L20.749 17.2319C20.7743 17.1591 20.8098 17.0607 20.8213 16.9879C20.8835 16.9657 20.9433 16.9374 21 16.9035C21.0056 16.9015 21.0096 16.8994 21.0155 16.8994C21.0214 16.8994 21.025 16.8994 21.029 16.9055C21.035 16.9211 21.0411 16.9389 21.047 16.9546L21.4075 17.9832C21.431 18.0519 21.4544 18.1247 21.4802 18.1838C21.5038 18.2389 21.545 18.2622 21.6095 18.2622H21.6215V18.3215C21.5313 18.3167 21.441 18.3142 21.3506 18.3138C21.2526 18.3143 21.1545 18.3169 21.0566 18.3215V18.2622H21.0783C21.1231 18.2622 21.2 18.2546 21.2 18.2054C21.2 18.1798 21.1822 18.1268 21.1603 18.0637L21.0842 17.8355H20.639L20.5761 18.0403V18.0402ZM20.8627 17.169H20.8587L20.6762 17.7255H21.0431L20.8627 17.169Z" fill="#211E1F"/>
<path d="M21.6205 18.3298C21.5323 18.3263 21.4442 18.3219 21.3505 18.3219C21.255 18.3219 21.1569 18.3263 21.0568 18.3299L21.0481 18.3303V18.2537H21.0778C21.1234 18.2537 21.1911 18.2431 21.1912 18.2053C21.1916 18.1829 21.174 18.1293 21.1521 18.0663L21.0776 17.8439H20.6448L20.5841 18.0427C20.5646 18.11 20.5412 18.1617 20.5416 18.1935C20.5416 18.2417 20.615 18.2537 20.6799 18.2537H20.7098V18.3303L20.701 18.3298C20.6226 18.3263 20.5424 18.3219 20.4644 18.3219C20.3941 18.3219 20.3236 18.3263 20.2529 18.3299L20.2444 18.3303V18.2537H20.2641C20.3373 18.2535 20.3985 18.2113 20.427 18.1315L20.7408 17.2291C20.7658 17.1561 20.8011 17.0581 20.8185 16.9799C20.8801 16.9585 20.9589 16.9193 20.9969 16.8952C21.0021 16.8935 21.0073 16.8912 21.0153 16.8912C21.0197 16.8908 21.024 16.8916 21.0279 16.8936C21.0317 16.8956 21.0349 16.8988 21.0369 16.9026C21.0427 16.918 21.0485 16.9359 21.0549 16.9519L21.4155 17.9803C21.4389 18.0493 21.4625 18.1219 21.4878 18.1805C21.5109 18.2326 21.5466 18.2531 21.6091 18.2537H21.6295V18.3303L21.6205 18.3298ZM21.0649 18.3125C21.1618 18.3088 21.2573 18.305 21.3505 18.305C21.4417 18.305 21.5273 18.3088 21.6127 18.3122L21.6124 18.2711H21.6092C21.5428 18.2713 21.4965 18.2451 21.4721 18.1871C21.4463 18.1275 21.4229 18.0545 21.3995 17.9859L21.0387 16.9573C21.0328 16.9416 21.0269 16.9237 21.0221 16.9104C21.0205 16.9079 21.0206 16.9079 21.0191 16.9079H21.0154C21.0113 16.9079 21.0091 16.9093 21.0044 16.9107C20.9662 16.9348 20.8876 16.974 20.8296 16.9892C20.8174 17.0636 20.7818 17.1617 20.7565 17.2347L20.4426 18.1373C20.4129 18.2226 20.3443 18.2713 20.2641 18.2711H20.2613V18.3122C20.3287 18.3088 20.3961 18.305 20.4644 18.305C20.5404 18.305 20.6177 18.3088 20.6932 18.3122V18.2711H20.6798C20.6161 18.2703 20.5266 18.2634 20.5243 18.1935C20.5247 18.1544 20.5491 18.1044 20.568 18.0377L20.576 18.0403L20.568 18.0375L20.6325 17.8272H21.0898L21.1684 18.0608C21.19 18.1242 21.2078 18.1764 21.2078 18.2053C21.2049 18.2657 21.1227 18.2699 21.0778 18.2711H21.0649L21.0649 18.3125ZM20.6644 17.7338L20.8524 17.1603H20.8626H20.8687L21.0541 17.7338H20.6644ZM20.6879 17.7169H21.0308L20.8603 17.1902L20.6879 17.7169ZM20.8545 17.1714L20.8584 17.1699L20.8544 17.1714H20.8545ZM22.1154 18.1287C22.1154 18.2074 22.1698 18.2308 22.2326 18.2388C22.313 18.2448 22.4013 18.2448 22.4918 18.2348C22.5739 18.225 22.6446 18.1778 22.6797 18.1287C22.7109 18.0853 22.7286 18.0303 22.7405 17.9871H22.7973C22.7758 18.0991 22.7483 18.2095 22.7247 18.3215C22.5525 18.3215 22.3797 18.3137 22.2073 18.3137C22.0345 18.3137 21.8623 18.3215 21.6897 18.3215V18.2622H21.7167C21.7877 18.2622 21.8644 18.2526 21.8644 18.1306V17.1199C21.8644 17.0174 21.7876 17.0078 21.7167 17.0078H21.6897V16.9487C21.7933 16.9487 21.8955 16.9565 21.9992 16.9565C22.0995 16.9565 22.1974 16.9487 22.2975 16.9487V17.0078H22.2481C22.1739 17.0078 22.1154 17.0099 22.1154 17.1139V18.1287Z" fill="#211E1F"/>
<path d="M22.7248 18.3298C22.552 18.3298 22.3795 18.3219 22.2075 18.3219C22.0348 18.3219 21.8623 18.3298 21.6895 18.3298H21.6812V18.2538H21.7168C21.788 18.2521 21.8551 18.2472 21.8559 18.1306V17.1196C21.8551 17.024 21.7883 17.0175 21.7168 17.0161H21.6812V16.9403H21.6895C21.7937 16.9403 21.8959 16.9478 21.9994 16.9478C22.099 16.9478 22.1968 16.9403 22.2976 16.9403H22.3056V17.0161H22.2484C22.1724 17.0183 22.1251 17.0147 22.1236 17.1139V18.1287C22.1241 18.2019 22.172 18.2217 22.2332 18.2303C22.2678 18.2327 22.3041 18.2343 22.342 18.2343C22.39 18.2343 22.4398 18.2319 22.4904 18.2265C22.5704 18.2171 22.6392 18.1708 22.6728 18.1239C22.7031 18.0819 22.7204 18.0279 22.7321 17.985L22.734 17.9785H22.8077L22.806 17.9889C22.7838 18.1013 22.7569 18.2113 22.7332 18.3231L22.7316 18.3299L22.7248 18.3298ZM22.7177 18.3127C22.7404 18.206 22.7661 18.1017 22.7872 17.9954H22.7469C22.7347 18.0382 22.7173 18.0909 22.6864 18.1339C22.6499 18.1849 22.5772 18.2329 22.4923 18.2434C22.4409 18.2487 22.39 18.2514 22.3419 18.2514C22.304 18.2514 22.2672 18.2496 22.2316 18.2471C22.1679 18.2401 22.106 18.2127 22.1063 18.1287V17.1138C22.1063 17.0046 22.1752 16.999 22.2484 16.999H22.2889V16.9572C22.1923 16.9578 22.0971 16.965 21.9994 16.965C21.8979 16.965 21.7986 16.9578 21.698 16.9572V16.999H21.7168C21.7868 16.999 21.8724 17.0112 21.8724 17.1195V18.1305C21.8724 18.2577 21.7872 18.271 21.7168 18.271H21.698V18.3126C21.8676 18.3124 22.0371 18.3051 22.2075 18.3051C22.3779 18.3051 22.548 18.3124 22.7177 18.3126V18.3127ZM22.7736 16.8928C22.8917 16.8928 22.98 16.9839 22.98 17.1006C22.98 17.2168 22.8917 17.307 22.7736 17.307C22.6554 17.307 22.5671 17.2168 22.5671 17.1006C22.5671 16.9839 22.6554 16.8928 22.7736 16.8928ZM22.7736 17.2685C22.8659 17.2685 22.9369 17.1894 22.9369 17.1006C22.9369 17.0113 22.867 16.9315 22.7736 16.9315C22.6808 16.9315 22.6097 17.0113 22.6097 17.1006C22.6097 17.1894 22.6808 17.2685 22.7736 17.2685ZM22.6708 17.2097V17.1995C22.6962 17.1959 22.7008 17.1967 22.7008 17.1809V17.0277C22.7008 17.0061 22.6984 16.9987 22.6717 16.9999V16.9894H22.7773C22.8138 16.9894 22.8472 17.0067 22.8472 17.0443C22.8472 17.0751 22.8268 17.0979 22.7984 17.1067L22.8322 17.1542C22.848 17.1758 22.8659 17.1959 22.8777 17.203V17.2097H22.8375C22.8182 17.2097 22.8013 17.1689 22.7632 17.1143H22.7404V17.1831C22.7404 17.1967 22.7452 17.1959 22.7706 17.1995V17.2097H22.6708ZM22.7404 17.1006H22.7648C22.7914 17.1006 22.8039 17.0803 22.8039 17.0478C22.8039 17.0147 22.7846 17.0031 22.7634 17.0031H22.7404V17.1006Z" fill="#211E1F"/>
<path d="M15.521 13.3993C18.5005 13.4136 21.22 10.9563 21.22 7.96698C21.22 4.69794 18.5005 2.43826 15.521 2.43938H12.9568C9.94172 2.43826 7.45996 4.69858 7.45996 7.96698C7.45996 10.957 9.94172 13.4137 12.9568 13.3993H15.521Z" fill="#0079BE"/>
<path d="M12.9691 2.89233C10.2139 2.89321 7.98135 5.13849 7.98071 7.90961C7.98135 10.6802 10.2139 12.9252 12.9691 12.9261C15.725 12.9253 17.958 10.6802 17.9583 7.90961C17.9579 5.13841 15.725 2.89321 12.9691 2.89233ZM9.80711 7.90961C9.80967 6.55545 10.6509 5.40081 11.837 4.94193V10.8766C10.6509 10.4179 9.80967 9.26385 9.80711 7.90961ZM14.1007 10.8779V4.94177C15.2874 5.39953 16.1298 6.55489 16.132 7.90969C16.1321 8.55153 15.9381 9.17841 15.5757 9.7081C15.2132 10.2378 14.6991 10.6456 14.1008 10.8779L14.1007 10.8779Z" fill="white"/>
<path d="M15.521 13.3993C18.5005 13.4136 21.22 10.9563 21.22 7.96698C21.22 4.69794 18.5005 2.43826 15.521 2.43938H12.9568C9.94172 2.43826 7.45996 4.69858 7.45996 7.96698C7.45996 10.957 9.94172 13.4137 12.9568 13.3993H15.521Z" fill="#0079BE"/>
<path d="M12.9691 2.89233C10.2139 2.89321 7.98135 5.13849 7.98071 7.90961C7.98135 10.6802 10.2139 12.9252 12.9691 12.9261C15.725 12.9253 17.958 10.6802 17.9583 7.90961C17.9579 5.13841 15.725 2.89321 12.9691 2.89233ZM9.80711 7.90961C9.80967 6.55545 10.6509 5.40081 11.837 4.94193V10.8766C10.6509 10.4179 9.80967 9.26385 9.80711 7.90961ZM14.1007 10.8779V4.94177C15.2874 5.39953 16.1298 6.55489 16.132 7.90969C16.1321 8.55153 15.9381 9.17841 15.5757 9.7081C15.2132 10.2378 14.6991 10.6456 14.1008 10.8779L14.1007 10.8779Z" fill="white"/>
<path fill-rule="evenodd" clip-rule="evenodd" d="M2.9 0.359375H26.1C27.428 0.359375 28.5 1.43137 28.5 2.75937V17.9594C28.5 19.2874 27.428 20.3594 26.1 20.3594H2.9C1.572 20.3594 0.5 19.2874 0.5 17.9594V2.75937C0.5 1.43137 1.572 0.359375 2.9 0.359375ZM27.7 2.75937C27.7 1.87937 26.98 1.15937 26.1 1.15937H2.9C2.02 1.15937 1.3 1.87937 1.3 2.75937V17.9594C1.3 18.8394 2.02 19.5594 2.9 19.5594H26.1C26.98 19.5594 27.7 18.8394 27.7 17.9594V2.75937Z" fill="#E7E7E7"/>
</g>
<defs>
<clipPath id="clip0_0_648">
<rect width="28" height="20" fill="white" transform="translate(0.5 0.359375)"/>
</clipPath>
</defs>
</svg>
