<svg width="29" height="21" viewBox="0 0 29 21" fill="none" xmlns="http://www.w3.org/2000/svg">
<g clip-path="url(#clip0_0_614)">
<path d="M25.6931 20.1562H2.40873C1.0759 20.1562 0 19.0842 0 17.7563V2.55625C0 1.22825 1.0759 0.15625 2.40873 0.15625H25.6931C27.0259 0.15625 28.1018 1.22825 28.1018 2.55625V17.7563C28.1018 19.0842 27.0259 20.1562 25.6931 20.1562Z" fill="#F8F8F8"/>
<path d="M25.6931 0.95625C26.5763 0.95625 27.2989 1.67625 27.2989 2.55625V17.7563C27.2989 18.6362 26.5763 19.3563 25.6931 19.3563H2.40873C1.52553 19.3563 0.802909 18.6362 0.802909 17.7563V2.55625C0.802909 1.67625 1.52553 0.95625 2.40873 0.95625H25.6931ZM25.6931 0.15625H2.40873C1.0759 0.15625 0 1.22825 0 2.55625V17.7563C0 19.0842 1.0759 20.1562 2.40873 20.1562H25.6931C27.0259 20.1562 28.1018 19.0842 28.1018 17.7563V2.55625C28.1018 1.22825 27.0259 0.15625 25.6931 0.15625Z" fill="#E7E7E7"/>
<path d="M22.34 10.1574C22.34 12.9866 20.0469 15.2713 17.2172 15.2713C14.3875 15.2713 12.0847 12.9866 12.0847 10.1574C12.0847 7.32825 14.3778 5.03379 17.2075 5.03379C20.0469 5.03379 22.34 7.32825 22.34 10.1574Z" fill="#F79F1A"/>
<path d="M16.017 10.1574C16.017 12.9866 13.7239 15.2713 10.8942 15.2713C8.06452 15.2713 5.77148 12.9769 5.77148 10.1574C5.77148 7.33797 8.06452 5.03379 10.8942 5.03379C13.7239 5.03379 16.017 7.32825 16.017 10.1574Z" fill="#EA001B"/>
<path d="M14.046 6.13241C12.8458 7.06574 12.0847 8.52408 12.0847 10.1574C12.0847 11.7908 12.8556 13.2491 14.046 14.1824C15.2462 13.2491 16.0073 11.7908 16.0073 10.1574C16.0073 8.52408 15.2462 7.06574 14.046 6.13241Z" fill="#FF5F01"/>
</g>
<defs>
<clipPath id="clip0_0_614">
<rect width="29" height="20" fill="white" transform="translate(0 0.15625)"/>
</clipPath>
</defs>
</svg>
