<svg width="29" height="21" viewBox="0 0 29 21" fill="none" xmlns="http://www.w3.org/2000/svg">
<g clip-path="url(#clip0_0_601)">
<path d="M25.6931 20.1562H2.40873C1.0759 20.1562 0 19.0842 0 17.7563V2.55625C0 1.22825 1.0759 0.15625 2.40873 0.15625H25.6931C27.0259 0.15625 28.1018 1.22825 28.1018 2.55625V17.7563C28.1018 19.0842 27.0259 20.1562 25.6931 20.1562Z" fill="#F8F8F8"/>
<path d="M25.6931 0.95625C26.5763 0.95625 27.2989 1.67625 27.2989 2.55625V17.7563C27.2989 18.6362 26.5763 19.3563 25.6931 19.3563H2.40873C1.52553 19.3563 0.802909 18.6362 0.802909 17.7563V2.55625C0.802909 1.67625 1.52553 0.95625 2.40873 0.95625H25.6931ZM25.6931 0.15625H2.40873C1.0759 0.15625 0 1.22825 0 2.55625V17.7563C0 19.0842 1.0759 20.1562 2.40873 20.1562H25.6931C27.0259 20.1562 28.1018 19.0842 28.1018 17.7563V2.55625C28.1018 1.22825 27.0259 0.15625 25.6931 0.15625Z" fill="#E7E7E7"/>
<path d="M11.7948 6.72425L10.3175 13.5563H12.0999L13.5773 6.72425H11.7948ZM23.2764 6.72425H21.7589C21.4217 6.72425 21.1246 6.92425 21.0042 7.22025L18.3225 13.5563H20.1932L20.5626 12.5323H22.8509L23.0677 13.5563H24.7217L23.2764 6.72425ZM21.0845 11.1323L22.0159 8.57225L22.5538 11.1323H21.0845ZM9.15325 6.72425L7.29853 11.3723L6.5438 7.42025C6.44745 6.97225 6.11022 6.71625 5.7168 6.71625H2.69786L2.65771 6.91625C3.28398 7.05225 3.98251 7.26825 4.41609 7.49225C4.67302 7.64425 4.75331 7.76425 4.8336 8.10025L6.25475 13.5643H8.13355L11.0321 6.73225H9.15325V6.72425ZM15.9218 8.62825C15.9218 8.38825 16.1626 8.11625 16.6765 8.06025C16.9334 8.03625 17.64 8.00425 18.4349 8.37225L18.748 6.91625C18.3144 6.76425 17.7604 6.62025 17.086 6.62025C15.3276 6.62025 14.0831 7.54825 14.0671 8.88425C14.051 9.86825 14.9583 10.4203 15.6247 10.7483C16.3152 11.0843 16.5561 11.3003 16.548 11.5963C16.548 12.0522 15.994 12.2603 15.4802 12.2683C14.5889 12.2843 14.059 12.0283 13.6495 11.8363L13.3284 13.3323C13.7459 13.5243 14.5167 13.6843 15.3196 13.7003C17.1984 13.7003 18.4188 12.7803 18.4349 11.3643C18.4188 9.53225 15.9057 9.42025 15.9218 8.62825Z" fill="#0F2496"/>
</g>
<defs>
<clipPath id="clip0_0_601">
<rect width="29" height="20" fill="white" transform="translate(0 0.15625)"/>
</clipPath>
</defs>
</svg>
